<svg xmlns="http://www.w3.org/2000/svg" xmlns:xlink="http://www.w3.org/1999/xlink" width="77.089mm" height="77.089mm" viewBox="3868.3 3257.3 303.5 303.5"><title></title><style type="text/css">
*[layerid="1"] {stroke:#000000;fill:#000000;}
*[layerid="2"] {stroke:#000000;fill:#000000;}
*[layerid="3"] {stroke:#000000;fill:#000000;}
*[layerid="4"] {stroke:#000000;fill:#000000;}
*[layerid="5"] {stroke:#000000;fill:#000000;}
*[layerid="6"] {stroke:#000000;fill:#000000;}
*[layerid="7"] {stroke:#000000;fill:#000000;}
*[layerid="8"] {stroke:#000000;fill:#000000;}
*[layerid="9"] {stroke:#000000;fill:#000000;}
*[layerid="10"] {stroke:#000000;fill:#000000;}
*[layerid="11"] {stroke:#000000;fill:#000000;}
*[layerid="12"] {stroke:#000000;fill:#000000;}
*[layerid="13"] {stroke:#000000;fill:#000000;}
*[layerid="14"] {stroke:#000000;fill:#000000;}
*[layerid="15"] {stroke:#000000;fill:#000000;}
*[layerid="19"] {stroke:#000000;fill:#000000;}
*[layerid="21"] {stroke:#000000;fill:#000000;}
*[layerid="22"] {stroke:#000000;fill:#000000;}
*[layerid="23"] {stroke:#000000;fill:#000000;}
*[layerid="24"] {stroke:#000000;fill:#000000;}
*[layerid="25"] {stroke:#000000;fill:#000000;}
*[layerid="26"] {stroke:#000000;fill:#000000;}
*[layerid="27"] {stroke:#000000;fill:#000000;}
*[layerid="28"] {stroke:#000000;fill:#000000;}
*[layerid="29"] {stroke:#000000;fill:#000000;}
*[layerid="30"] {stroke:#000000;fill:#000000;}
*[layerid="31"] {stroke:#000000;fill:#000000;}
*[layerid="32"] {stroke:#000000;fill:#000000;}
*[layerid="33"] {stroke:#000000;fill:#000000;}
*[layerid="34"] {stroke:#000000;fill:#000000;}
*[layerid="35"] {stroke:#000000;fill:#000000;}
*[layerid="36"] {stroke:#000000;fill:#000000;}
*[layerid="37"] {stroke:#000000;fill:#000000;}
*[layerid="38"] {stroke:#000000;fill:#000000;}
*[layerid="39"] {stroke:#000000;fill:#000000;}
*[layerid="40"] {stroke:#000000;fill:#000000;}
*[layerid="41"] {stroke:#000000;fill:#000000;}
*[layerid="42"] {stroke:#000000;fill:#000000;}
*[layerid="43"] {stroke:#000000;fill:#000000;}
*[layerid="44"] {stroke:#000000;fill:#000000;}
*[layerid="45"] {stroke:#000000;fill:#000000;}
*[layerid="46"] {stroke:#000000;fill:#000000;}
*[layerid="47"] {stroke:#000000;fill:#000000;}
*[layerid="48"] {stroke:#000000;fill:#000000;}
*[layerid="49"] {stroke:#000000;fill:#000000;}
*[layerid="50"] {stroke:#000000;fill:#000000;}
*[layerid="51"] {stroke:#000000;fill:#000000;}
*[layerid="52"] {stroke:#000000;fill:#000000;}
*[layerid="99"] {stroke:#000000;fill:#000000;}
*[layerid="100"] {stroke:#000000;fill:#000000;}
*[layerid="101"] {stroke:#000000;fill:#000000;}
*[layerid="Hole"] {stroke:#000000;fill:#000000;}
*[layerid="DRCError"] {stroke:#000000;fill:#000000;}
*[fill="none"] {fill: none;}
*[stroke="none"] {stroke: none;}
path, polyline, polygon, line {stroke-linecap:round;}
g[c_partid="part_pad"][layerid="1"] ellipse:not([c_padid]) {fill:#000000;}
g[c_partid="part_pad"][layerid="1"]  polygon:not([c_padid]) {fill:#000000;}
g[c_partid="part_pad"][layerid="1"]  polyline:not([c_padid]) {stroke:#000000;}
g[c_partid="part_pad"][layerid="1"]  circle {fill:#000000;}
g[c_partid="part_pad"][layerid="2"]  ellipse:not([c_padid]) {fill:#000000;}
g[c_partid="part_pad"][layerid="2"]  polygon:not([c_padid]) {fill:#000000;}
g[c_partid="part_pad"][layerid="2"]  polyline:not([c_padid]) {stroke:#000000;}
g[c_partid="part_pad"][layerid="2"]  circle {fill:#000000;}
g[c_partid="part_pad"][layerid="11"]  ellipse:not([c_padid]) {fill:#000000;}
g[c_partid="part_pad"][layerid="11"]  polygon:not([c_padid]) {fill:#000000;}
g[c_partid="part_pad"][layerid="11"]  polyline:not([c_padid]) {stroke:#000000;}
g[c_partid="part_pad"][layerid="11"]  circle {fill:#000000;}
g[c_partid="part_pad"][layerid] > circle[c_padhole] {fill: #FFFFFF;}
g[c_partid="part_pad"][layerid] > polyline[c_padhole] {stroke:#FFFFFF;}
g[c_partid="part_via"][layerid] > * + circle {fill: #FFFFFF;}
g[c_partid="part_pad"] > polygon[c_padid] {stroke-linejoin: miter;stroke-miterlimit: 100;}
g[c_partid="part_hole"] > circle {fill: #FFFFFF;}path, polyline, polygon {stroke-linejoin:round;}
rect, circle, ellipse, polyline, line, polygon, path {shape-rendering:crispEdges;}
</style>
<rect x="3868.3" y="3257.3" width="303.5" height="303.5" fill="#FFFFFF" stroke="none"/><g id="g1" transform="matrix(-1, 0, 0, 1, 8040.1, 0)" cpara="description``package`TO-92-3_L5.1-W4.1-P1.27-L`link`https://item.szlcsc.com/39513.html`Contributor`LCSC`3DModel`TO-92-3_L4.9-W3.7-P1.27-L`BOM_Supplier`LCSC`BOM_Supplier Part`C73726`BOM_Manufacturer`Holtek Semicon`BOM_Manufacturer Part`HT7333-A`spicePre`U`spiceSymbolName`HT7333-A_C73726`" c_transformList="" importFlag="0" xmlns="http://www.w3.org/2000/svg"><polyline points="4036.989 3339.151 3941.279 3434.86" stroke-width="1" c_shapetype="line" stroke-linecap="round" fill="none" layerid="4" net="" id="gge1818" /><polyline points="4093.223 3395.385 4036.989 3339.151" stroke-width="1" c_shapetype="line" stroke-linecap="round" fill="none" layerid="4" net="" id="gge1819" /><polyline points="3997.513 3491.094 3941.279 3434.86" stroke-width="1" c_shapetype="line" stroke-linecap="round" fill="none" layerid="4" net="" id="gge1820" /><polyline points="4093.223 3395.385 3997.513 3491.094" stroke-width="1" c_shapetype="line" stroke-linecap="round" fill="none" layerid="4" net="" id="gge1821" /><polyline points="4003.487 3446.5 3984 3427.013" stroke-width="1" c_shapetype="line" stroke-linecap="round" fill="none" layerid="4" net="" id="gge1404" /><polyline points="4003.487 3446.5 3984.279 3465.709" stroke-width="1" c_shapetype="line" stroke-linecap="round" fill="none" layerid="4" net="" id="gge1405" /><polyline points="3984.278 3465.709 3964.791 3446.222" stroke-width="1" c_shapetype="line" stroke-linecap="round" fill="none" layerid="4" net="" id="gge1406" /><polyline points="3997.934 3452.054 3978.447 3432.566" stroke-width="1" c_shapetype="line" stroke-linecap="round" fill="none" layerid="4" net="" id="gge1407" /><polyline points="3989.03 3460.958 3969.542 3441.471" stroke-width="1" c_shapetype="line" stroke-linecap="round" fill="none" layerid="4" net="" id="gge1408" /><polyline points="3984.279 3465.709 3985.531 3466.962 3987.759 3464.735 3986.506 3463.482" stroke-width="1" c_shapetype="line" stroke-linecap="round" fill="none" layerid="4" net="" id="gge1409" /><polyline points="3984 3427.013 3964.791 3446.222" stroke-width="1" c_shapetype="line" stroke-linecap="round" fill="none" layerid="4" net="" id="gge1410" /><polyline points="3984 3427.013 3982.747 3425.76 3980.52 3427.987 3981.773 3429.24" stroke-width="1" c_shapetype="line" stroke-linecap="round" fill="none" layerid="4" net="" id="gge1411" /><polyline points="4041.513 3339 4061 3358.487" stroke-width="1" c_shapetype="line" stroke-linecap="round" fill="none" layerid="4" net="" id="gge1792" /><polyline points="4041.513 3339 4060.722 3319.791" stroke-width="1" c_shapetype="line" stroke-linecap="round" fill="none" layerid="4" net="" id="gge1793" /><polyline points="4060.722 3319.791 4080.209 3339.278" stroke-width="1" c_shapetype="line" stroke-linecap="round" fill="none" layerid="4" net="" id="gge1794" /><polyline points="4047.066 3333.447 4066.553 3352.934" stroke-width="1" c_shapetype="line" stroke-linecap="round" fill="none" layerid="4" net="" id="gge1795" /><polyline points="4055.97 3324.542 4075.458 3344.03" stroke-width="1" c_shapetype="line" stroke-linecap="round" fill="none" layerid="4" net="" id="gge1796" /><polyline points="4060.722 3319.791 4059.469 3318.538 4057.242 3320.765 4058.494 3322.018" stroke-width="1" c_shapetype="line" stroke-linecap="round" fill="none" layerid="4" net="" id="gge1797" /><polyline points="4061 3358.487 4080.209 3339.279" stroke-width="1" c_shapetype="line" stroke-linecap="round" fill="none" layerid="4" net="" id="gge1798" /><polyline points="4061 3358.487 4062.253 3359.74 4064.48 3357.513 4063.227 3356.26" stroke-width="1" c_shapetype="line" stroke-linecap="round" fill="none" layerid="4" net="" id="gge1799" /><polyline points="3981.828 3418.167 3970.667 3429.327" stroke-width="1" c_shapetype="line" stroke-linecap="round" fill="none" layerid="4" net="" id="gge4488" /><g c_partid="part_pcbtext" c_origin="3986.67,3392.65" c_rotation="0" c_mirror="1" id="gge1814" layerid="4" c_shapetype="group" display="none"><path c_fontSize="4.5" c_fontFamily="" c_text="HLK-PM03" d="M 3986.6737 3388.1128 L 3986.6737 3392.4028 M 3983.8137 3388.1128 L 3983.8137 3392.4028 M 3986.6737 3390.1528 L 3983.8137 3390.1528 M 3982.4637 3388.1128 L 3982.4637 3392.4028 M 3982.4637 3392.4028 L 3980.0037 3392.4028 M 3978.6537 3388.1128 L 3978.6537 3392.4028 M 3975.7937 3388.1128 L 3978.6537 3390.9728 M 3977.6337 3389.9528 L 3975.7937 3392.4028 M 3974.4437 3390.5628 L 3970.7637 3390.5628 M 3969.4137 3388.1128 L 3969.4137 3392.4028 M 3969.4137 3388.1128 L 3967.5737 3388.1128 L 3966.9537 3388.3128 L 3966.7537 3388.5228 L 3966.5437 3388.9328 L 3966.5437 3389.5428 L 3966.7537 3389.9528 L 3966.9537 3390.1528 L 3967.5737 3390.3628 L 3969.4137 3390.3628 M 3965.1937 3388.1128 L 3965.1937 3392.4028 M 3965.1937 3388.1128 L 3963.5637 3392.4028 M 3961.9237 3388.1128 L 3963.5637 3392.4028 M 3961.9237 3388.1128 L 3961.9237 3392.4028 M 3959.3437 3388.1128 L 3959.9637 3388.3128 L 3960.3737 3388.9328 L 3960.5737 3389.9528 L 3960.5737 3390.5628 L 3960.3737 3391.5928 L 3959.9637 3392.2028 L 3959.3437 3392.4028 L 3958.9337 3392.4028 L 3958.3237 3392.2028 L 3957.9137 3391.5928 L 3957.7137 3390.5628 L 3957.7137 3389.9528 L 3957.9137 3388.9328 L 3958.3237 3388.3128 L 3958.9337 3388.1128 L 3959.3437 3388.1128 M 3955.9537 3388.1128 L 3953.7037 3388.1128 L 3954.9237 3389.7528 L 3954.3137 3389.7528 L 3953.9037 3389.9528 L 3953.7037 3390.1528 L 3953.4937 3390.7728 L 3953.4937 3391.1828 L 3953.7037 3391.7928 L 3954.1137 3392.2028 L 3954.7237 3392.4028 L 3955.3337 3392.4028 L 3955.9537 3392.2028 L 3956.1537 3392.0028 L 3956.3637 3391.5928" fill="none"  stroke-width="0.6"  /></g><g c_partid="part_pcbtext" c_origin="4011.27,3391.67" c_rotation="45" c_mirror="1" id="gge1816" layerid="4" c_shapetype="group" ><path c_fontSize="4.5" c_fontFamily="" c_text="U6" d="M 4008.0582 3388.4613 L 4010.2291 3390.6321 L 4010.519 3391.2049 L 4010.519 3391.7847 L 4010.222 3392.3645 L 4009.9321 3392.6545 L 4009.3593 3392.9444 L 4008.7795 3392.9444 L 4008.2067 3392.6545 L 4006.0359 3390.4836 M 4003.7732 3393.609 L 4003.6318 3393.1706 L 4003.9217 3392.5979 L 4004.2116 3392.308 L 4004.7843 3392.0181 L 4005.5127 3392.1665 L 4006.3824 3392.7393 L 4007.1036 3393.4606 L 4007.535 3394.1889 L 4007.535 3394.7687 L 4007.2451 3395.3415 L 4007.0966 3395.4899 L 4006.5238 3395.7799 L 4005.944 3395.7799 L 4005.3712 3395.4899 L 4005.2227 3395.3415 L 4004.9328 3394.7687 L 4004.9328 3394.1889 L 4005.2227 3393.6161 L 4005.3712 3393.4676 L 4005.944 3393.1777 L 4006.5238 3393.1777 L 4007.1036 3393.4606" fill="none"  stroke-width="0.6" c_note="note_pre" /></g><g c_partid="part_pcbtext" c_origin="4044.73,3373.95" c_rotation="45" c_mirror="1" id="gge1822" layerid="4" c_shapetype="group" ><path c_fontSize="4.72" c_fontFamily="" c_text="AC" d="M 4041.7024 3373.3434 L 4046.0935 3375.3162 M 4041.7024 3373.3434 L 4043.6681 3377.7416 M 4044.5803 3374.7081 L 4043.06 3376.2284 M 4037.9689 3378.5901 L 4037.8133 3378.1375 L 4037.8133 3377.5294 L 4037.9689 3377.0769 L 4038.577 3376.4688 L 4039.0295 3376.3132 L 4039.6376 3376.3132 L 4040.0902 3376.4688 L 4040.6912 3376.7728 L 4041.4549 3377.5365 L 4041.759 3378.1375 L 4041.9145 3378.5901 L 4041.9145 3379.1982 L 4041.759 3379.6508 L 4041.1508 3380.2589 L 4040.6983 3380.4144 L 4040.0902 3380.4144 L 4039.6376 3380.2589" fill="none"  stroke-width="0.98425"  /></g><g c_partid="part_pcbtext" c_origin="4058.87,3388.09" c_rotation="45" c_mirror="1" id="gge1824" layerid="4" c_shapetype="group" ><path c_fontSize="4.72" c_fontFamily="" c_text="AC" d="M 4055.8445 3387.4855 L 4060.2357 3389.4583 M 4055.8445 3387.4855 L 4057.8103 3391.8837 M 4058.7224 3388.8502 L 4057.2022 3390.3705 M 4052.111 3392.7322 L 4051.9554 3392.2797 L 4051.9554 3391.6716 L 4052.111 3391.219 L 4052.7191 3390.6109 L 4053.1717 3390.4553 L 4053.7798 3390.4553 L 4054.2323 3390.6109 L 4054.8334 3390.915 L 4055.597 3391.6786 L 4055.9011 3392.2797 L 4056.0567 3392.7322 L 4056.0567 3393.3403 L 4055.9011 3393.7929 L 4055.293 3394.401 L 4054.8404 3394.5566 L 4054.2323 3394.5566 L 4053.7798 3394.401" fill="none"  stroke-width="0.98425"  /></g><g c_partid="part_pcbtext" c_origin="4008.99,3466.49" c_rotation="45" c_mirror="1" id="gge1826" layerid="4" c_shapetype="group" ><path c_fontSize="4.72" c_fontFamily="" c_text="+" d="M 4006.2551 3466.4905 L 4008.9846 3469.22 M 4008.9846 3466.4905 L 4006.2551 3469.22" fill="none"  stroke-width="0.98425"  /></g><g c_partid="part_pcbtext" c_origin="3966.22,3423.73" c_rotation="45" c_mirror="1" id="gge1828" layerid="4" c_shapetype="group" ><path c_fontSize="4.72" c_fontFamily="" c_text="-" d="M 3966.2187 3423.7247 L 3963.4893 3426.4542" fill="none"  stroke-width="0.98425"  /></g><g c_partid="part_pcbtext" c_origin="4025.76,3389.9" c_rotation="45" c_mirror="1" id="gge1830" layerid="4" c_shapetype="group" ><path c_fontSize="8" c_fontFamily="" c_text="HLK-PM03" d="M 4022.6812 3386.8208 L 4028.0764 3392.216 M 4019.082 3390.42 L 4024.4773 3395.8152 M 4025.248 3389.3876 L 4021.6488 3392.9868 M 4017.385 3392.1171 L 4022.7802 3397.5123 M 4022.7802 3397.5123 L 4019.6972 3400.5953 M 4012.6049 3396.8971 L 4018.0002 3402.2923 M 4008.9987 3400.5033 L 4016.2041 3400.4963 M 4013.6302 3400.4963 L 4014.3939 3405.8986 M 4010.3846 3405.2834 L 4005.7601 3409.9079 M 4000.9801 3408.5219 L 4006.3753 3413.9172 M 4000.9801 3408.5219 L 3998.6679 3410.8342 L 3998.1517 3411.8595 L 3998.1446 3412.3757 L 3998.4062 3413.1464 L 3999.177 3413.9172 L 3999.9477 3414.1788 L 4000.4639 3414.1717 L 4001.4963 3413.6626 L 4003.8085 3411.3504 M 3995.6839 3413.8182 L 4001.0791 3419.2134 M 3995.6839 3413.8182 L 3999.0214 3421.2711 M 3991.5685 3417.9335 L 3999.0214 3421.2711 M 3991.5685 3417.9335 L 3996.9637 3423.3287 M 3988.33 3421.1721 L 3989.3553 3420.6559 L 3990.6422 3420.9104 L 3992.1837 3421.9428 L 3992.9544 3422.7136 L 3993.9868 3424.2551 L 3994.2414 3425.542 L 3993.7252 3426.5673 L 3993.209 3427.0835 L 3992.1837 3427.5997 L 3990.8968 3427.3451 L 3989.3553 3426.3127 L 3988.5845 3425.542 L 3987.5521 3424.0005 L 3987.2976 3422.7136 L 3987.8138 3421.6883 L 3988.33 3421.1721 M 3984.059 3425.443 L 3981.2306 3428.2714 L 3984.8298 3428.7876 L 3984.059 3429.5584 L 3983.8045 3430.322 L 3983.7974 3430.8382 L 3984.3136 3431.8635 L 3984.8298 3432.3797 L 3985.8551 3432.8959 L 3986.8875 3432.8959 L 3987.9128 3432.3797 L 3988.6835 3431.609 L 3989.1997 3430.5837 L 3989.2068 3430.0675 L 3988.9451 3429.2967" fill="none"  stroke-width="0.98425"  /></g><g c_partid="part_pcbtext" c_origin="4035.5,3401" c_rotation="45" c_mirror="1" id="gge1832" layerid="4" c_shapetype="group" ><path c_fontSize="3.937" c_fontFamily="" c_text="INPUT: 100-240VAC&amp;#10;OUTPUT: 3.3VDC/3W" d="M 4033.9797 3399.4797 L 4036.6385 3402.1384 M 4033.1454 3400.3141 L 4035.8041 3402.9728 M 4033.1454 3400.3141 L 4034.0292 3404.7477 M 4031.3705 3402.0889 L 4034.0292 3404.7477 M 4030.5361 3402.9233 L 4033.1949 3405.582 M 4030.5361 3402.9233 L 4029.3977 3404.0618 L 4029.1431 3404.5709 L 4029.1502 3404.8184 L 4029.2775 3405.2002 L 4029.6593 3405.582 L 4030.0341 3405.7022 L 4030.2816 3405.7093 L 4030.7907 3405.4548 L 4031.9291 3404.3163 M 4027.934 3405.5255 L 4029.8361 3407.4276 L 4030.0836 3407.9296 L 4030.0836 3408.4387 L 4029.829 3408.9479 L 4029.5745 3409.2024 L 4029.0724 3409.4499 L 4028.5633 3409.4499 L 4028.0613 3409.2024 L 4026.1591 3407.3003 M 4024.4409 3409.0186 L 4027.0996 3411.6773 M 4025.3248 3408.1347 L 4023.5499 3409.9095 M 4023.7267 3412.0096 L 4023.9813 3412.0096 L 4023.9813 3412.2642 L 4023.7338 3412.2571 L 4023.7267 3412.0096 M 4024.6177 3412.9006 L 4024.8651 3412.8935 L 4024.8651 3413.1481 L 4024.6177 3413.141 L 4024.6177 3412.9006 M 4020.1912 3414.2865 L 4019.8093 3414.4138 L 4019.0457 3414.4138 L 4021.7044 3417.0725 M 4017.4547 3416.0048 L 4017.9638 3415.7502 L 4018.5931 3415.8846 L 4019.3497 3416.3866 L 4019.7315 3416.7685 L 4020.2336 3417.5251 L 4020.3679 3418.1544 L 4020.1134 3418.6635 L 4019.8588 3418.9181 L 4019.3497 3419.1726 L 4018.7204 3419.0383 L 4017.9638 3418.5362 L 4017.5819 3418.1544 L 4017.0799 3417.3978 L 4016.9455 3416.7685 L 4017.2001 3416.2593 L 4017.4547 3416.0048 M 4014.8454 3418.614 L 4015.3546 3418.3595 L 4015.9909 3418.4867 L 4016.7476 3418.9888 L 4017.1294 3419.3706 L 4017.6314 3420.1272 L 4017.7587 3420.7636 L 4017.5042 3421.2727 L 4017.2496 3421.5273 L 4016.7476 3421.7748 L 4016.1112 3421.6475 L 4015.3546 3421.1455 L 4014.9727 3420.7636 L 4014.4707 3420.007 L 4014.3434 3419.3706 L 4014.5909 3418.8686 L 4014.8454 3418.614 M 4014.5202 3421.9798 L 4012.2433 3424.2567 M 4010.3977 3424.3345 L 4010.2705 3424.2072 L 4009.8886 3424.08 L 4009.6341 3424.08 L 4009.2522 3424.2072 L 4008.7502 3424.7093 L 4008.6229 3425.0911 L 4008.6229 3425.3457 L 4008.7502 3425.7275 L 4009.0047 3425.9821 L 4009.3795 3426.1023 L 4010.0159 3426.2296 L 4012.5473 3426.2296 L 4010.7725 3428.0044 M 4006.0137 3427.4458 L 4009.0542 3427.9549 L 4007.1592 3429.8499 M 4006.0137 3427.4458 L 4008.6724 3430.1045 M 4003.7863 3429.6732 L 4004.2954 3429.4186 L 4004.9318 3429.5459 L 4005.6884 3430.0479 L 4006.0702 3430.4298 L 4006.5723 3431.1864 L 4006.6996 3431.8228 L 4006.445 3432.3319 L 4006.1904 3432.5864 L 4005.6884 3432.8339 L 4005.052 3432.7067 L 4004.2954 3432.2046 L 4003.9136 3431.8228 L 4003.4115 3431.0662 L 4003.2842 3430.4298 L 4003.5317 3429.9277 L 4003.7863 3429.6732 M 4001.9407 3431.5187 L 4003.5883 3435.1886 M 3999.9184 3433.541 L 4003.5883 3435.1886 M 3998.0658 3435.3937 L 4001.7357 3437.0412 M 3998.0658 3435.3937 L 3999.7134 3439.0635 M 4000.477 3436.5321 L 3999.2113 3437.7978 M 3994.9616 3439.7707 L 3994.8272 3439.3959 L 3994.8272 3438.8868 L 3994.9545 3438.5049 L 3995.4636 3437.9958 L 3995.8384 3437.8756 L 3996.3475 3437.8756 L 3996.7294 3438.0029 L 3997.2314 3438.2504 L 3997.8678 3438.8868 L 3998.1224 3439.3959 L 3998.2426 3439.7707 L 3998.2426 3440.2798 L 3998.1224 3440.6545 L 3997.6132 3441.1637 L 3997.2314 3441.2909 L 3996.7223 3441.2909 L 3996.3546 3441.1637 M 4038.8376 3405.8507 L 4039.2123 3405.7305 L 4039.7215 3405.7305 L 4040.0962 3405.8507 L 4040.6053 3406.1053 L 4041.2417 3406.7417 L 4041.4892 3407.2437 L 4041.6165 3407.6256 L 4041.6165 3408.1347 L 4041.4963 3408.5095 L 4040.9872 3409.0186 L 4040.6053 3409.1459 L 4040.0962 3409.1459 L 4039.7215 3409.0115 L 4039.2194 3408.764 L 4038.583 3408.1276 L 4038.3285 3407.6185 L 4038.2012 3407.2508 L 4038.2012 3406.7417 L 4038.3285 3406.3599 L 4038.8376 3405.8507 M 4036.7375 3407.9508 L 4038.6325 3409.8459 L 4038.8871 3410.355 L 4038.8871 3410.8641 L 4038.6325 3411.3732 L 4038.378 3411.6278 L 4037.8759 3411.8753 L 4037.3668 3411.8753 L 4036.8577 3411.6207 L 4034.9626 3409.7257 M 4033.2444 3411.444 L 4035.9031 3414.1027 M 4034.1282 3410.5601 L 4032.3534 3412.3349 M 4031.519 3413.1693 L 4034.1777 3415.828 M 4031.519 3413.1693 L 4030.3806 3414.3077 L 4030.1331 3414.8098 L 4030.1331 3415.0643 L 4030.2604 3415.4462 L 4030.6351 3415.8209 L 4031.017 3415.9482 L 4031.2715 3415.9482 L 4031.7736 3415.7007 L 4032.912 3414.5623 M 4028.9169 3415.7714 L 4030.8119 3417.6665 L 4031.0665 3418.1756 L 4031.0665 3418.6847 L 4030.8119 3419.1938 L 4030.5573 3419.4484 L 4030.0553 3419.6959 L 4029.5462 3419.6959 L 4029.0371 3419.4413 L 4027.142 3417.5463 M 4025.4238 3419.2646 L 4028.0825 3421.9233 M 4026.3076 3418.3807 L 4024.5328 3420.1555 M 4024.7096 3422.2556 L 4024.9641 3422.2556 L 4024.9641 3422.5102 L 4024.7166 3422.5031 L 4024.7096 3422.2556 M 4025.5935 3423.1395 L 4025.848 3423.1395 L 4025.848 3423.3941 L 4025.6005 3423.387 L 4025.5935 3423.1395 M 4020.4104 3424.2779 L 4019.0174 3425.6709 L 4020.7922 3425.9184 L 4020.4104 3426.3003 L 4020.2831 3426.6821 L 4020.2831 3426.9367 L 4020.5376 3427.4458 L 4020.7851 3427.6933 L 4021.2943 3427.9478 L 4021.8034 3427.9478 L 4022.3125 3427.6933 L 4022.6873 3427.3185 L 4022.9418 3426.8094 L 4022.9418 3426.5548 L 4022.8145 3426.173 M 4019.9507 3428.7822 L 4020.2053 3428.7822 L 4020.2053 3429.0368 L 4019.9507 3429.0368 L 4019.9507 3428.7822 M 4016.7193 3427.969 L 4015.3263 3429.362 L 4017.094 3429.6166 L 4016.7122 3429.9984 L 4016.592 3430.3732 L 4016.592 3430.6278 L 4016.8465 3431.1369 L 4017.094 3431.3844 L 4017.6032 3431.6389 L 4018.1052 3431.646 L 4018.6143 3431.3914 L 4018.9962 3431.0096 L 4019.2507 3430.5005 L 4019.2436 3430.253 L 4019.1164 3429.8712 M 4014.3646 3430.3237 L 4016.0051 3434.0007 M 4012.3352 3432.3531 L 4016.0051 3434.0007 M 4011.5008 3433.1875 L 4014.1595 3435.8462 M 4011.5008 3433.1875 L 4010.6169 3434.0714 L 4010.3624 3434.5805 L 4010.3624 3435.0896 L 4010.4897 3435.4573 L 4010.7442 3435.9664 L 4011.3806 3436.6028 L 4011.8827 3436.8503 L 4012.2574 3436.9846 L 4012.7665 3436.9846 L 4013.2757 3436.7301 L 4014.1595 3435.8462 M 4007.6259 3438.3211 L 4007.5057 3437.9463 L 4007.5057 3437.4372 L 4007.6329 3437.0554 L 4008.135 3436.5533 L 4008.5168 3436.426 L 4009.0259 3436.426 L 4009.4007 3436.5462 L 4009.9098 3436.8008 L 4010.5462 3437.4372 L 4010.7937 3437.9392 L 4010.921 3438.3211 L 4010.921 3438.8302 L 4010.7937 3439.212 L 4010.2917 3439.7141 L 4009.9098 3439.8414 L 4009.4007 3439.8414 L 4009.0189 3439.7141 M 4003.3762 3440.2939 L 4009.7048 3442.0687 M 4002.7963 3441.892 L 4001.4033 3443.285 L 4003.1782 3443.5325 L 4002.7963 3443.9143 L 4002.6691 3444.2961 L 4002.6691 3444.5507 L 4002.9236 3445.0598 L 4003.1711 3445.3073 L 4003.6802 3445.5619 L 4004.1893 3445.5619 L 4004.6985 3445.3073 L 4005.0732 3444.9325 L 4005.3278 3444.4234 L 4005.3278 3444.1689 L 4005.2005 3443.787 M 4000.4417 3444.2466 L 4002.4711 3447.5347 M 3999.176 3445.5124 L 4002.4711 3447.5347 M 3999.176 3445.5124 L 4001.2053 3448.8004 M 3997.9102 3446.7781 L 4001.2053 3448.8004" fill="none"  stroke-width="0.8"  /></g><g c_partid="part_pcbtext" c_origin="4006.59,3414.21" c_rotation="0" c_mirror="1" id="gge1400" layerid="4" c_shapetype="group" display="none"><path c_fontSize="4.5" c_fontFamily="" c_text="KF350-3.5-2P" d="M 4006.5904 3409.667 L 4006.5904 3413.957 M 4003.7304 3409.667 L 4006.5904 3412.527 M 4005.5704 3411.507 L 4003.7304 3413.957 M 4002.3805 3409.667 L 4002.3805 3413.957 M 4002.3805 3409.667 L 3999.7204 3409.667 M 4002.3805 3411.707 L 4000.7405 3411.707 M 3997.9604 3409.667 L 3995.7105 3409.667 L 3996.9404 3411.3069 L 3996.3205 3411.307 L 3995.9104 3411.507 L 3995.7104 3411.707 L 3995.5004 3412.327 L 3995.5005 3412.737 L 3995.7104 3413.347 L 3996.1204 3413.757 L 3996.7305 3413.957 L 3997.3405 3413.957 L 3997.9605 3413.757 L 3998.1604 3413.557 L 3998.3704 3413.147 M 3991.7005 3409.667 L 3993.7404 3409.667 L 3993.9504 3411.5071 L 3993.7404 3411.3071 L 3993.1304 3411.097 L 3992.5205 3411.097 L 3991.9004 3411.307 L 3991.4905 3411.7071 L 3991.2905 3412.327 L 3991.2904 3412.737 L 3991.4904 3413.347 L 3991.9004 3413.7571 L 3992.5204 3413.957 L 3993.1305 3413.9571 L 3993.7405 3413.7571 L 3993.9505 3413.557 L 3994.1505 3413.147 M 3988.7105 3409.667 L 3989.3305 3409.867 L 3989.7404 3410.487 L 3989.9405 3411.507 L 3989.9404 3412.117 L 3989.7404 3413.147 L 3989.3305 3413.757 L 3988.7105 3413.957 L 3988.3004 3413.9571 L 3987.6904 3413.757 L 3987.2805 3413.147 L 3987.0804 3412.117 L 3987.0805 3411.507 L 3987.2804 3410.487 L 3987.6904 3409.867 L 3988.3004 3409.667 L 3988.7105 3409.667 M 3985.7305 3412.117 L 3982.0405 3412.117 M 3980.2904 3409.667 L 3978.0404 3409.667 L 3979.2604 3411.307 L 3978.6505 3411.307 L 3978.2405 3411.507 L 3978.0405 3411.7071 L 3977.8305 3412.327 L 3977.8305 3412.737 L 3978.0404 3413.347 L 3978.4404 3413.757 L 3979.0605 3413.957 L 3979.6704 3413.957 L 3980.2905 3413.7571 L 3980.4905 3413.557 L 3980.6904 3413.147 M 3976.2805 3412.937 L 3976.4805 3413.147 L 3976.2804 3413.347 L 3976.0704 3413.147 L 3976.2805 3412.937 M 3972.2705 3409.667 L 3974.3104 3409.667 L 3974.5205 3411.507 L 3974.3104 3411.307 L 3973.7004 3411.097 L 3973.0904 3411.097 L 3972.4704 3411.307 L 3972.0605 3411.7071 L 3971.8604 3412.3271 L 3971.8604 3412.737 L 3972.0604 3413.347 L 3972.4705 3413.7571 L 3973.0904 3413.957 L 3973.7005 3413.9571 L 3974.3105 3413.7571 L 3974.5205 3413.557 L 3974.7205 3413.147 M 3970.5104 3412.117 L 3966.8305 3412.117 M 3965.2704 3410.687 L 3965.2705 3410.487 L 3965.0704 3410.077 L 3964.8605 3409.867 L 3964.4505 3409.667 L 3963.6405 3409.667 L 3963.2305 3409.867 L 3963.0204 3410.077 L 3962.8205 3410.487 L 3962.8204 3410.897 L 3963.0204 3411.3071 L 3963.4304 3411.917 L 3965.4805 3413.957 L 3962.6105 3413.957 M 3961.2604 3409.6671 L 3961.2604 3413.957 M 3961.2604 3409.6671 L 3959.4204 3409.667 L 3958.8104 3409.867 L 3958.6004 3410.0769 L 3958.4004 3410.4871 L 3958.4004 3411.097 L 3958.6005 3411.507 L 3958.8104 3411.7071 L 3959.4205 3411.917 L 3961.2605 3411.917" fill="none"  stroke-width="0.6"  /></g><g c_partid="part_pcbtext" c_origin="3994.68,3435.97" c_rotation="315" c_mirror="1" id="gge1402" layerid="4" c_shapetype="group" ><path c_fontSize="4.5" c_fontFamily="" c_text="U5" d="M 3997.895 3432.7613 L 3995.7242 3434.9322 L 3995.1514 3435.222 L 3994.5716 3435.222 L 3993.9918 3434.925 L 3993.7019 3434.6351 L 3993.4119 3434.0623 L 3993.4119 3433.4825 L 3993.7019 3432.9098 L 3995.8727 3430.7389 M 3993.1786 3428.0449 L 3994.6282 3429.4944 L 3993.4685 3430.9369 L 3993.4685 3430.6541 L 3993.1786 3430.0672 L 3992.7473 3429.6359 L 3992.1674 3429.353 L 3991.5947 3429.3459 L 3991.0078 3429.6359 L 3990.7179 3429.9258 L 3990.435 3430.5056 L 3990.435 3431.0854 L 3990.7249 3431.6582 L 3991.1563 3432.0895 L 3991.7361 3432.3865 L 3992.0189 3432.3865 L 3992.4574 3432.2451" fill="none"  stroke-width="0.6" c_note="note_pre" /></g><g c_partid="part_pcbtext" c_origin="4062.68,3349.71" c_rotation="90" c_mirror="1" id="gge1788" layerid="4" c_shapetype="group" display="none"><path c_fontSize="4.5" c_fontFamily="" c_text="KF350-3.5-2P" d="M 4058.1378 3349.7138 L 4062.4278 3349.7138 M 4058.1378 3352.5738 L 4060.9978 3349.7138 M 4059.9778 3350.7338 L 4062.4278 3352.5738 M 4058.1378 3353.9238 L 4062.4278 3353.9238 M 4058.1378 3353.9238 L 4058.1378 3356.5838 M 4060.1778 3353.9238 L 4060.1778 3355.5638 M 4058.1378 3358.3438 L 4058.1378 3360.5938 L 4059.7778 3359.3638 L 4059.7778 3359.9838 L 4059.9778 3360.3938 L 4060.1778 3360.5938 L 4060.7978 3360.8038 L 4061.2078 3360.8038 L 4061.8178 3360.5938 L 4062.2278 3360.1838 L 4062.4278 3359.5738 L 4062.4278 3358.9638 L 4062.2278 3358.3438 L 4062.0278 3358.1438 L 4061.6178 3357.9338 M 4058.1378 3364.6038 L 4058.1378 3362.5638 L 4059.9778 3362.3538 L 4059.7778 3362.5638 L 4059.5678 3363.1738 L 4059.5678 3363.7838 L 4059.7778 3364.4038 L 4060.1778 3364.8138 L 4060.7978 3365.0138 L 4061.2078 3365.0138 L 4061.8178 3364.8138 L 4062.2278 3364.4038 L 4062.4278 3363.7838 L 4062.4278 3363.1738 L 4062.2278 3362.5638 L 4062.0278 3362.3538 L 4061.6178 3362.1538 M 4058.1378 3367.5938 L 4058.3378 3366.9738 L 4058.9578 3366.5638 L 4059.9778 3366.3638 L 4060.5878 3366.3638 L 4061.6178 3366.5638 L 4062.2278 3366.9738 L 4062.4278 3367.5938 L 4062.4278 3368.0038 L 4062.2278 3368.6138 L 4061.6178 3369.0238 L 4060.5878 3369.2238 L 4059.9778 3369.2238 L 4058.9578 3369.0238 L 4058.3378 3368.6138 L 4058.1378 3368.0038 L 4058.1378 3367.5938 M 4060.5878 3370.5738 L 4060.5878 3374.2638 M 4058.1378 3376.0138 L 4058.1378 3378.2638 L 4059.7778 3377.0438 L 4059.7778 3377.6538 L 4059.9778 3378.0638 L 4060.1778 3378.2638 L 4060.7978 3378.4738 L 4061.2078 3378.4738 L 4061.8178 3378.2638 L 4062.2278 3377.8638 L 4062.4278 3377.2438 L 4062.4278 3376.6338 L 4062.2278 3376.0138 L 4062.0278 3375.8138 L 4061.6178 3375.6138 M 4061.4078 3380.0238 L 4061.6178 3379.8238 L 4061.8178 3380.0238 L 4061.6178 3380.2338 L 4061.4078 3380.0238 M 4058.1378 3384.0338 L 4058.1378 3381.9938 L 4059.9778 3381.7838 L 4059.7778 3381.9938 L 4059.5678 3382.6038 L 4059.5678 3383.2138 L 4059.7778 3383.8338 L 4060.1778 3384.2438 L 4060.7978 3384.4438 L 4061.2078 3384.4438 L 4061.8178 3384.2438 L 4062.2278 3383.8338 L 4062.4278 3383.2138 L 4062.4278 3382.6038 L 4062.2278 3381.9938 L 4062.0278 3381.7838 L 4061.6178 3381.5838 M 4060.5878 3385.7938 L 4060.5878 3389.4738 M 4059.1578 3391.0338 L 4058.9578 3391.0338 L 4058.5478 3391.2338 L 4058.3378 3391.4438 L 4058.1378 3391.8538 L 4058.1378 3392.6638 L 4058.3378 3393.0738 L 4058.5478 3393.2838 L 4058.9578 3393.4838 L 4059.3678 3393.4838 L 4059.7778 3393.2838 L 4060.3878 3392.8738 L 4062.4278 3390.8238 L 4062.4278 3393.6938 M 4058.1378 3395.0438 L 4062.4278 3395.0438 M 4058.1378 3395.0438 L 4058.1378 3396.8838 L 4058.3378 3397.4938 L 4058.5478 3397.7038 L 4058.9578 3397.9038 L 4059.5678 3397.9038 L 4059.9778 3397.7038 L 4060.1778 3397.4938 L 4060.3878 3396.8838 L 4060.3878 3395.0438" fill="none"  stroke-width="0.6"  /></g><g c_partid="part_pcbtext" c_origin="4050.32,3349.53" c_rotation="135" c_mirror="1" id="gge1790" layerid="4" c_shapetype="group" ><path c_fontSize="4.5" c_fontFamily="" c_text="U4" d="M 4047.105 3352.7387 L 4049.2758 3350.5679 L 4049.8486 3350.278 L 4050.4284 3350.278 L 4051.0082 3350.575 L 4051.2981 3350.8649 L 4051.5881 3351.4377 L 4051.5881 3352.0175 L 4051.2981 3352.5902 L 4049.1273 3354.7611 M 4051.5315 3357.1652 L 4052.1042 3353.6933 L 4054.2751 3355.8641 M 4051.5315 3357.1652 L 4054.565 3354.1317" fill="none"  stroke-width="0.6" c_note="note_pre" /></g><g c_partid="part_pcbtext" c_origin="3967.53,3430.86" c_rotation="0" c_mirror="1" id="gge3467" layerid="4" c_shapetype="group" display="none"><path c_fontSize="4.5" c_fontFamily="" c_text="HT7333-A_C73726" d="M 3967.5306 3426.3195 L 3967.5306 3430.6095 M 3964.6706 3426.3195 L 3964.6706 3430.6095 M 3967.5306 3428.3595 L 3964.6706 3428.3595 M 3961.8806 3426.3195 L 3961.8806 3430.6095 M 3963.3206 3426.3195 L 3960.4506 3426.3195 M 3956.2406 3426.3195 L 3958.2806 3430.6095 M 3959.1006 3426.3195 L 3956.2406 3426.3195 M 3954.4806 3426.3195 L 3952.2306 3426.3195 L 3953.4606 3427.9595 L 3952.8406 3427.9595 L 3952.4306 3428.1595 L 3952.2306 3428.3595 L 3952.0306 3428.9795 L 3952.0306 3429.3895 L 3952.2306 3429.9995 L 3952.6406 3430.4095 L 3953.2506 3430.6095 L 3953.8706 3430.6095 L 3954.4806 3430.4095 L 3954.6806 3430.2095 L 3954.8906 3429.7995 M 3950.2706 3426.3195 L 3948.0206 3426.3195 L 3949.2406 3427.9595 L 3948.6306 3427.9595 L 3948.2206 3428.1595 L 3948.0206 3428.3595 L 3947.8106 3428.9795 L 3947.8106 3429.3895 L 3948.0206 3429.9995 L 3948.4306 3430.4095 L 3949.0406 3430.6095 L 3949.6506 3430.6095 L 3950.2706 3430.4095 L 3950.4706 3430.2095 L 3950.6806 3429.7995 M 3946.0506 3426.3195 L 3943.8006 3426.3195 L 3945.0306 3427.9595 L 3944.4206 3427.9595 L 3944.0106 3428.1595 L 3943.8006 3428.3595 L 3943.6006 3428.9795 L 3943.6006 3429.3895 L 3943.8006 3429.9995 L 3944.2106 3430.4095 L 3944.8306 3430.6095 L 3945.4406 3430.6095 L 3946.0506 3430.4095 L 3946.2606 3430.2095 L 3946.4606 3429.7995 M 3942.2506 3428.7695 L 3938.5706 3428.7695 M 3935.5806 3426.3195 L 3937.2206 3430.6095 M 3935.5806 3426.3195 L 3933.9406 3430.6095 M 3936.6006 3429.1795 L 3934.5606 3429.1795 M 3932.5906 3432.0495 L 3928.9106 3432.0495 M 3924.4906 3427.3395 L 3924.7006 3426.9295 L 3925.1106 3426.5195 L 3925.5206 3426.3195 L 3926.3306 3426.3195 L 3926.7406 3426.5195 L 3927.1506 3426.9295 L 3927.3606 3427.3395 L 3927.5606 3427.9595 L 3927.5606 3428.9795 L 3927.3606 3429.5895 L 3927.1506 3429.9995 L 3926.7406 3430.4095 L 3926.3306 3430.6095 L 3925.5206 3430.6095 L 3925.1106 3430.4095 L 3924.7006 3429.9995 L 3924.4906 3429.5895 M 3920.2806 3426.3195 L 3922.3306 3430.6095 M 3923.1406 3426.3195 L 3920.2806 3426.3195 M 3918.5206 3426.3195 L 3916.2706 3426.3195 L 3917.5006 3427.9595 L 3916.8806 3427.9595 L 3916.4806 3428.1595 L 3916.2706 3428.3595 L 3916.0706 3428.9795 L 3916.0706 3429.3895 L 3916.2706 3429.9995 L 3916.6806 3430.4095 L 3917.2906 3430.6095 L 3917.9106 3430.6095 L 3918.5206 3430.4095 L 3918.7306 3430.2095 L 3918.9306 3429.7995 M 3911.8506 3426.3195 L 3913.9006 3430.6095 M 3914.7206 3426.3195 L 3911.8506 3426.3195 M 3910.3006 3427.3395 L 3910.3006 3427.1395 L 3910.0906 3426.7295 L 3909.8906 3426.5195 L 3909.4806 3426.3195 L 3908.6606 3426.3195 L 3908.2506 3426.5195 L 3908.0506 3426.7295 L 3907.8406 3427.1395 L 3907.8406 3427.5495 L 3908.0506 3427.9595 L 3908.4606 3428.5695 L 3910.5006 3430.6095 L 3907.6406 3430.6095 M 3903.8306 3426.9295 L 3904.0406 3426.5195 L 3904.6506 3426.3195 L 3905.0606 3426.3195 L 3905.6806 3426.5195 L 3906.0806 3427.1395 L 3906.2906 3428.1595 L 3906.2906 3429.1795 L 3906.0806 3429.9995 L 3905.6806 3430.4095 L 3905.0606 3430.6095 L 3904.8606 3430.6095 L 3904.2406 3430.4095 L 3903.8306 3429.9995 L 3903.6306 3429.3895 L 3903.6306 3429.1795 L 3903.8306 3428.5695 L 3904.2406 3428.1595 L 3904.8606 3427.9595 L 3905.0606 3427.9595 L 3905.6806 3428.1595 L 3906.0806 3428.5695 L 3906.2906 3429.1795" fill="none"  stroke-width="0.6"  /></g><g c_partid="part_pcbtext" c_origin="3964.37,3411.16" c_rotation="45" c_mirror="1" id="gge3469" layerid="4" c_shapetype="group" ><path c_fontSize="4.5" c_fontFamily="" c_text="U7" d="M 3961.158 3407.9509 L 3963.3288 3410.1217 L 3963.6187 3410.6945 L 3963.6187 3411.2743 L 3963.3218 3411.8541 L 3963.0318 3412.144 L 3962.4591 3412.434 L 3961.8793 3412.434 L 3961.3065 3412.144 L 3959.1357 3409.9732 M 3956.1517 3412.9572 L 3960.6347 3414.5411 M 3958.1811 3410.9278 L 3956.1517 3412.9572" fill="none"  stroke-width="0.6" c_note="note_pre" /></g><path d="M 3970.667 3429.3273 A 9.5 9.5 0 1 1 3981.827 3418.1662" c_shapetype="line" fill="none" stroke-width="1" c_helper_type="arc2" net="" layerid="4" id="rep2" /><g c_partid="part_pad" c_etype="pinpart" c_origin="3986.39,3378.61" layerid="11" number="1" net="U2_16" plated ="Y" c_shapetype="group" id="gge1572" locked="0" c_rotation="135" c_width="7.677" c_height="3.839" title="U2_16" c_shape="OVAL" pasteExpansion="0" solderExpansion="0.4"><polyline points="3987.747 3379.967 3985.033 3377.253" stroke-width="3.839" /><polyline c_padhole="1" points="3986.394 3378.607 3986.393 3378.606" stroke-width="2.56"></polyline></g><g c_partid="part_pad" c_etype="pinpart" c_origin="3989.93,3375.07" layerid="11" number="2" net="U3_2" plated ="Y" c_shapetype="group" id="gge1577" locked="0" c_rotation="135" c_width="7.677" c_height="3.839" title="U3_2" c_shape="OVAL" pasteExpansion="0" solderExpansion="0.4"><polyline points="3991.287 3376.427 3988.573 3373.713" stroke-width="3.839" /><polyline c_padhole="1" points="3989.929 3375.071 3989.929 3375.071" stroke-width="2.56"></polyline></g><g c_partid="part_pad" c_etype="pinpart" c_origin="3993.47,3371.54" layerid="11" number="3" net="U2_15" plated ="Y" c_shapetype="group" id="gge1582" locked="0" c_rotation="135" c_width="7.677" c_height="3.839" title="U2_15" c_shape="OVAL" pasteExpansion="0" solderExpansion="0.4"><polyline points="3994.827 3372.897 3992.113 3370.183" stroke-width="3.839" /><polyline c_padhole="1" points="3993.465 3371.536 3993.464 3371.535" stroke-width="2.56"></polyline></g><g c_partid="part_pad" c_etype="pinpart" c_origin="3997,3368" layerid="11" number="4" net="U2_12" plated ="Y" c_shapetype="group" id="gge1587" locked="0" c_rotation="135" c_width="7.677" c_height="3.839" title="U2_12" c_shape="OVAL" pasteExpansion="0" solderExpansion="0.4"><polyline points="3998.357 3369.357 3995.643 3366.643" stroke-width="3.839" /><polyline c_padhole="1" points="3997 3368 3997 3368" stroke-width="2.56"></polyline></g><g c_partid="part_pad" c_etype="pinpart" c_origin="4032.8,3504.47" layerid="11" number="1" net="U2_4" plated ="Y" c_shapetype="group" id="gge1091" locked="0" c_rotation="180" c_width="7.0866" c_height="7.0866" title="U2_4" c_shape="ELLIPSE" pasteExpansion="0" solderExpansion="0.4"><ellipse cx="4032.8" cy="3504.47" rx="3.5433" ry="3.5433" stroke-width="0" /><circle c_padhole="1" cx="4032.7953" cy="3504.4725" r="2.3622" stroke-width="0" /></g><g c_partid="part_pad" c_etype="pinpart" c_origin="4007.21,3504.47" layerid="11" number="2" net="U2_4" plated ="Y" c_shapetype="group" id="gge1096" locked="0" c_rotation="180" c_width="7.0866" c_height="7.0866" title="U2_4" c_shape="ELLIPSE" pasteExpansion="0" solderExpansion="0.4"><ellipse cx="4007.21" cy="3504.47" rx="3.5433" ry="3.5433" stroke-width="0" /><circle c_padhole="1" cx="4007.2047" cy="3504.4725" r="2.3622" stroke-width="0" /></g><g c_partid="part_pad" c_etype="pinpart" c_origin="4032.8,3486.76" layerid="11" number="3" net="VCC" plated ="Y" c_shapetype="group" id="gge1101" locked="0" c_rotation="180" c_width="7.0866" c_height="7.0866" title="VCC" c_shape="ELLIPSE" pasteExpansion="0" solderExpansion="0.4"><ellipse cx="4032.8" cy="3486.76" rx="3.5433" ry="3.5433" stroke-width="0" /><circle c_padhole="1" cx="4032.7953" cy="3486.7559" r="2.3622" stroke-width="0" /></g><g c_partid="part_pad" c_etype="pinpart" c_origin="4007.21,3486.76" layerid="11" number="4" net="VCC" plated ="Y" c_shapetype="group" id="gge1106" locked="0" c_rotation="180" c_width="7.0866" c_height="7.0866" title="VCC" c_shape="ELLIPSE" pasteExpansion="0" solderExpansion="0.4"><ellipse cx="4007.21" cy="3486.76" rx="3.5433" ry="3.5433" stroke-width="0" /><circle c_padhole="1" cx="4007.2047" cy="3486.7559" r="2.3622" stroke-width="0" /></g><g c_partid="part_pad" c_etype="pinpart" c_origin="3924.53,3421.8" layerid="11" number="1" net="U2_5" plated ="Y" c_shapetype="group" id="gge1128" locked="0" c_rotation="90" c_width="7.0866" c_height="7.0866" title="U2_5" c_shape="ELLIPSE" pasteExpansion="0" solderExpansion="0.4"><ellipse cx="3924.53" cy="3421.8" rx="3.5433" ry="3.5433" stroke-width="0" /><circle c_padhole="1" cx="3924.5275" cy="3421.7953" r="2.3622" stroke-width="0" /></g><g c_partid="part_pad" c_etype="pinpart" c_origin="3924.53,3396.21" layerid="11" number="2" net="U2_5" plated ="Y" c_shapetype="group" id="gge1133" locked="0" c_rotation="90" c_width="7.0866" c_height="7.0866" title="U2_5" c_shape="ELLIPSE" pasteExpansion="0" solderExpansion="0.4"><ellipse cx="3924.53" cy="3396.21" rx="3.5433" ry="3.5433" stroke-width="0" /><circle c_padhole="1" cx="3924.5275" cy="3396.2047" r="2.3622" stroke-width="0" /></g><g c_partid="part_pad" c_etype="pinpart" c_origin="3942.24,3421.8" layerid="11" number="3" net="GND" plated ="Y" c_shapetype="group" id="gge1138" locked="0" c_rotation="90" c_width="7.0866" c_height="7.0866" title="GND" c_shape="ELLIPSE" pasteExpansion="0" solderExpansion="0.4"><ellipse cx="3942.24" cy="3421.8" rx="3.5433" ry="3.5433" stroke-width="0" /><circle c_padhole="1" cx="3942.2441" cy="3421.7953" r="2.3622" stroke-width="0" /></g><g c_partid="part_pad" c_etype="pinpart" c_origin="3942.24,3396.21" layerid="11" number="4" net="GND" plated ="Y" c_shapetype="group" id="gge1143" locked="0" c_rotation="90" c_width="7.0866" c_height="7.0866" title="GND" c_shape="ELLIPSE" pasteExpansion="0" solderExpansion="0.4"><ellipse cx="3942.24" cy="3396.21" rx="3.5433" ry="3.5433" stroke-width="0" /><circle c_padhole="1" cx="3942.2441" cy="3396.2047" r="2.3622" stroke-width="0" /></g><g c_partid="part_pad" c_etype="pinpart" c_origin="4007.21,3313.53" layerid="11" number="1" net="U2_6" plated ="Y" c_shapetype="group" id="gge1165" locked="0" c_rotation="0" c_width="7.0866" c_height="7.0866" title="U2_6" c_shape="ELLIPSE" pasteExpansion="0" solderExpansion="0.4"><ellipse cx="4007.21" cy="3313.53" rx="3.5433" ry="3.5433" stroke-width="0" /><circle c_padhole="1" cx="4007.2047" cy="3313.5275" r="2.3622" stroke-width="0" /></g><g c_partid="part_pad" c_etype="pinpart" c_origin="4032.8,3313.53" layerid="11" number="2" net="U2_6" plated ="Y" c_shapetype="group" id="gge1170" locked="0" c_rotation="0" c_width="7.0866" c_height="7.0866" title="U2_6" c_shape="ELLIPSE" pasteExpansion="0" solderExpansion="0.4"><ellipse cx="4032.8" cy="3313.53" rx="3.5433" ry="3.5433" stroke-width="0" /><circle c_padhole="1" cx="4032.7953" cy="3313.5275" r="2.3622" stroke-width="0" /></g><g c_partid="part_pad" c_etype="pinpart" c_origin="4007.21,3331.24" layerid="11" number="3" net="GND" plated ="Y" c_shapetype="group" id="gge1175" locked="0" c_rotation="0" c_width="7.0866" c_height="7.0866" title="GND" c_shape="ELLIPSE" pasteExpansion="0" solderExpansion="0.4"><ellipse cx="4007.21" cy="3331.24" rx="3.5433" ry="3.5433" stroke-width="0" /><circle c_padhole="1" cx="4007.2047" cy="3331.2441" r="2.3622" stroke-width="0" /></g><g c_partid="part_pad" c_etype="pinpart" c_origin="4032.8,3331.24" layerid="11" number="4" net="GND" plated ="Y" c_shapetype="group" id="gge1180" locked="0" c_rotation="0" c_width="7.0866" c_height="7.0866" title="GND" c_shape="ELLIPSE" pasteExpansion="0" solderExpansion="0.4"><ellipse cx="4032.8" cy="3331.24" rx="3.5433" ry="3.5433" stroke-width="0" /><circle c_padhole="1" cx="4032.7953" cy="3331.2441" r="2.3622" stroke-width="0" /></g><g c_partid="part_pad" c_etype="pinpart" c_origin="4097.76,3421.8" layerid="11" number="1" net="U2_7" plated ="Y" c_shapetype="group" id="gge1202" locked="0" c_rotation="90" c_width="7.0866" c_height="7.0866" title="U2_7" c_shape="ELLIPSE" pasteExpansion="0" solderExpansion="0.4"><ellipse cx="4097.76" cy="3421.8" rx="3.5433" ry="3.5433" stroke-width="0" /><circle c_padhole="1" cx="4097.7559" cy="3421.7953" r="2.3622" stroke-width="0" /></g><g c_partid="part_pad" c_etype="pinpart" c_origin="4097.76,3396.21" layerid="11" number="2" net="U2_7" plated ="Y" c_shapetype="group" id="gge1207" locked="0" c_rotation="90" c_width="7.0866" c_height="7.0866" title="U2_7" c_shape="ELLIPSE" pasteExpansion="0" solderExpansion="0.4"><ellipse cx="4097.76" cy="3396.21" rx="3.5433" ry="3.5433" stroke-width="0" /><circle c_padhole="1" cx="4097.7559" cy="3396.2047" r="2.3622" stroke-width="0" /></g><g c_partid="part_pad" c_etype="pinpart" c_origin="4115.47,3421.8" layerid="11" number="3" net="GND" plated ="Y" c_shapetype="group" id="gge1212" locked="0" c_rotation="90" c_width="7.0866" c_height="7.0866" title="GND" c_shape="ELLIPSE" pasteExpansion="0" solderExpansion="0.4"><ellipse cx="4115.47" cy="3421.8" rx="3.5433" ry="3.5433" stroke-width="0" /><circle c_padhole="1" cx="4115.4725" cy="3421.7953" r="2.3622" stroke-width="0" /></g><g c_partid="part_pad" c_etype="pinpart" c_origin="4115.47,3396.21" layerid="11" number="4" net="GND" plated ="Y" c_shapetype="group" id="gge1217" locked="0" c_rotation="90" c_width="7.0866" c_height="7.0866" title="GND" c_shape="ELLIPSE" pasteExpansion="0" solderExpansion="0.4"><ellipse cx="4115.47" cy="3396.21" rx="3.5433" ry="3.5433" stroke-width="0" /><circle c_padhole="1" cx="4115.4725" cy="3396.2047" r="2.3622" stroke-width="0" /></g><g c_partid="part_pad" c_etype="pinpart" c_origin="3975.5,3389.5" layerid="11" number="1" net="U1_3" plated ="Y" c_shapetype="group" id="gge320" locked="0" c_rotation="315" c_width="6.6929" c_height="6.6929" title="U1_3" c_shape="RECT" pasteExpansion="0" solderExpansion="0.4"><polygon points="3975.5 3384.767 3980.233 3389.5 3975.5 3394.233 3970.767 3389.5" stroke-width="0" /><circle c_padhole="1" cx="3975.5" cy="3389.5" r="2.1654" stroke-width="0" /></g><g c_partid="part_pad" c_etype="pinpart" c_origin="3995.5,3352" layerid="11" number="1" net="VCC" plated ="Y" c_shapetype="group" id="gge622" locked="0" c_rotation="180" c_width="6.6929" c_height="6.6929" title="VCC" c_shape="RECT" pasteExpansion="0" solderExpansion="0.4"><polygon points="3998.847 3355.347 3992.154 3355.347 3992.154 3348.654 3998.847 3348.654" stroke-width="0" /><circle c_padhole="1" cx="3995.5" cy="3352" r="2.1654" stroke-width="0" /></g><g c_partid="part_pad" c_etype="pinpart" c_origin="3985.5,3352" layerid="11" number="2" net="GND" plated ="Y" c_shapetype="group" id="gge627" locked="0" c_rotation="180" c_width="6.6929" c_height="6.6929" title="GND" c_shape="ELLIPSE" pasteExpansion="0" solderExpansion="0.4"><ellipse cx="3985.5" cy="3352" rx="3.34645" ry="3.34645" stroke-width="0" /><circle c_padhole="1" cx="3985.5" cy="3352" r="2.1654" stroke-width="0" /></g><g c_partid="part_pad" c_etype="pinpart" c_origin="3975.5,3352" layerid="11" number="3" net="U2_14" plated ="Y" c_shapetype="group" id="gge632" locked="0" c_rotation="180" c_width="6.6929" c_height="6.6929" title="U2_14" c_shape="ELLIPSE" pasteExpansion="0" solderExpansion="0.4"><ellipse cx="3975.5" cy="3352" rx="3.34645" ry="3.34645" stroke-width="0" /><circle c_padhole="1" cx="3975.5" cy="3352" r="2.1654" stroke-width="0" /></g><g c_partid="part_pad" c_etype="pinpart" c_origin="3965.5,3352" layerid="11" number="4" net="U2_13" plated ="Y" c_shapetype="group" id="gge637" locked="0" c_rotation="180" c_width="6.6929" c_height="6.6929" title="U2_13" c_shape="ELLIPSE" pasteExpansion="0" solderExpansion="0.4"><ellipse cx="3965.5" cy="3352" rx="3.34645" ry="3.34645" stroke-width="0" /><circle c_padhole="1" cx="3965.5" cy="3352" r="2.1654" stroke-width="0" /></g><g c_partid="part_pad" c_etype="pinpart" c_origin="4028.28,3461.83" layerid="11" number="3" net="VCC" plated ="Y" c_shapetype="group" id="gge523" locked="0" c_rotation="45" c_width="7.874" c_height="3.937" title="VCC" c_shape="RECT" pasteExpansion="0" solderExpansion="0.4"><polygon points="4024.107 3463.226 4029.675 3457.658 4032.459 3460.442 4026.891 3466.01" stroke-width="0" /><circle c_padhole="1" cx="4028.2836" cy="3461.8341" r="1.2008" stroke-width="0" /></g><g c_partid="part_pad" c_etype="pinpart" c_origin="4061.7,3406.15" layerid="11" number="16" net="U2_16" plated ="Y" c_shapetype="group" id="gge428" locked="0" c_rotation="225" c_width="7.874" c_height="3.937" title="U2_16" c_shape="RECT" pasteExpansion="0" solderExpansion="0.4"><polygon points="4065.872 3404.758 4060.304 3410.326 4057.52 3407.542 4063.088 3401.974" stroke-width="0" /><circle c_padhole="1" cx="4061.6965" cy="3406.1502" r="1.2008" stroke-width="0" /></g><g c_partid="part_pad" c_etype="pinpart" c_origin="4067.26,3411.72" layerid="11" number="15" net="U2_15" plated ="Y" c_shapetype="group" id="gge433" locked="0" c_rotation="225" c_width="7.874" c_height="3.937" title="U2_15" c_shape="RECT" pasteExpansion="0" solderExpansion="0.4"><polygon points="4071.439 3410.326 4065.871 3415.894 4063.087 3413.11 4068.655 3407.543" stroke-width="0" /><circle c_padhole="1" cx="4067.2636" cy="3411.7187" r="1.2008" stroke-width="0" /></g><g c_partid="part_pad" c_etype="pinpart" c_origin="4083.97,3428.42" layerid="11" number="12" net="U2_12" plated ="Y" c_shapetype="group" id="gge448" locked="0" c_rotation="225" c_width="7.874" c_height="3.937" title="U2_12" c_shape="RECT" pasteExpansion="0" solderExpansion="0.4"><polygon points="4088.143 3427.029 4082.575 3432.597 4079.791 3429.813 4085.359 3424.245" stroke-width="0" /><circle c_padhole="1" cx="4083.9676" cy="3428.4213" r="1.2008" stroke-width="0" /></g><g c_partid="part_pad" c_etype="pinpart" c_origin="4089.54,3433.99" layerid="11" number="11" net="U1_1" plated ="Y" c_shapetype="group" id="gge453" locked="0" c_rotation="225" c_width="7.874" c_height="3.937" title="U1_1" c_shape="RECT" pasteExpansion="0" solderExpansion="0.4"><polygon points="4093.713 3432.595 4088.145 3438.162 4085.361 3435.379 4090.929 3429.811" stroke-width="0" /><circle c_padhole="1" cx="4089.5375" cy="3433.9869" r="1.2008" stroke-width="0" /></g><g c_partid="part_pad" c_etype="pinpart" c_origin="4095.1,3439.56" layerid="11" number="10" net="GND" plated ="Y" c_shapetype="group" id="gge458" locked="0" c_rotation="225" c_width="7.874" c_height="3.937" title="GND" c_shape="RECT" pasteExpansion="0" solderExpansion="0.4"><polygon points="4099.277 3438.166 4093.709 3443.734 4090.926 3440.95 4096.493 3435.382" stroke-width="0" /><circle c_padhole="1" cx="4095.1017" cy="3439.5582" r="1.2008" stroke-width="0" /></g><g c_partid="part_pad" c_etype="pinpart" c_origin="4100.67,3445.13" layerid="11" number="9" net="GND" plated ="Y" c_shapetype="group" id="gge463" locked="0" c_rotation="225" c_width="7.874" c_height="3.937" title="GND" c_shape="RECT" pasteExpansion="0" solderExpansion="0.4"><polygon points="4104.841 3443.738 4099.273 3449.306 4096.489 3446.522 4102.057 3440.954" stroke-width="0" /><circle c_padhole="1" cx="4100.6652" cy="3445.1302" r="1.2008" stroke-width="0" /></g><g c_partid="part_pad" c_etype="pinpart" c_origin="4056.12,3489.67" layerid="11" number="8" net="VCC" plated ="Y" c_shapetype="group" id="gge498" locked="0" c_rotation="45" c_width="7.874" c_height="3.937" title="VCC" c_shape="RECT" pasteExpansion="0" solderExpansion="0.4"><polygon points="4051.948 3491.063 4057.516 3485.495 4060.3 3488.279 4054.732 3493.846" stroke-width="0" /><circle c_padhole="1" cx="4056.1246" cy="3489.6709" r="1.2008" stroke-width="0" /></g><g c_partid="part_pad" c_etype="pinpart" c_origin="4050.55,3484.11" layerid="11" number="7" net="U2_7" plated ="Y" c_shapetype="group" id="gge503" locked="0" c_rotation="45" c_width="7.874" c_height="3.937" title="U2_7" c_shape="RECT" pasteExpansion="0" solderExpansion="0.4"><polygon points="4046.379 3485.497 4051.946 3479.929 4054.73 3482.713 4049.162 3488.281" stroke-width="0" /><circle c_padhole="1" cx="4050.5547" cy="3484.1052" r="1.2008" stroke-width="0" /></g><g c_partid="part_pad" c_etype="pinpart" c_origin="4044.99,3478.54" layerid="11" number="6" net="U2_6" plated ="Y" c_shapetype="group" id="gge508" locked="0" c_rotation="45" c_width="7.874" c_height="3.937" title="U2_6" c_shape="RECT" pasteExpansion="0" solderExpansion="0.4"><polygon points="4040.811 3479.929 4046.379 3474.361 4049.162 3477.145 4043.595 3482.713" stroke-width="0" /><circle c_padhole="1" cx="4044.9869" cy="3478.5375" r="1.2008" stroke-width="0" /></g><g c_partid="part_pad" c_etype="pinpart" c_origin="4039.42,3472.97" layerid="11" number="5" net="U2_5" plated ="Y" c_shapetype="group" id="gge513" locked="0" c_rotation="45" c_width="7.874" c_height="3.937" title="U2_5" c_shape="RECT" pasteExpansion="0" solderExpansion="0.4"><polygon points="4035.243 3474.361 4040.811 3468.794 4043.595 3471.577 4038.027 3477.145" stroke-width="0" /><circle c_padhole="1" cx="4039.4192" cy="3472.9697" r="1.2008" stroke-width="0" /></g><g c_partid="part_pad" c_etype="pinpart" c_origin="4033.85,3467.4" layerid="11" number="4" net="U2_4" plated ="Y" c_shapetype="group" id="gge518" locked="0" c_rotation="45" c_width="7.874" c_height="3.937" title="U2_4" c_shape="RECT" pasteExpansion="0" solderExpansion="0.4"><polygon points="4029.675 3468.794 4035.243 3463.226 4038.027 3466.01 4032.459 3471.577" stroke-width="0" /><circle c_padhole="1" cx="4033.8513" cy="3467.4019" r="1.2008" stroke-width="0" /></g><g c_partid="part_pad" c_etype="pinpart" c_origin="3955.41,3434.1" layerid="11" number="3" net="GND" plated ="Y" c_shapetype="group" id="gge1834" locked="0" c_rotation="45" c_width="12" c_height="12" title="GND" c_shape="ELLIPSE" pasteExpansion="0" solderExpansion="0.4"><ellipse cx="3955.41" cy="3434.1" rx="6" ry="6" stroke-width="0" /><circle c_padhole="1" cx="3955.4071" cy="3434.098" r="2.5" stroke-width="0" /></g><g c_partid="part_pad" c_etype="pinpart" c_origin="3998.28,3476.97" layerid="11" number="4" net="VCC" plated ="Y" c_shapetype="group" id="gge1839" locked="0" c_rotation="45" c_width="12" c_height="12" title="VCC" c_shape="ELLIPSE" pasteExpansion="0" solderExpansion="0.4"><ellipse cx="3998.28" cy="3476.97" rx="6" ry="6" stroke-width="0" /><circle c_padhole="1" cx="3998.279" cy="3476.9699" r="2.5" stroke-width="0" /></g><g c_partid="part_pad" c_etype="pinpart" c_origin="4051.74,3366.73" layerid="11" number="1" net="U4_1" plated ="Y" c_shapetype="group" id="gge1844" locked="0" c_rotation="45" c_width="12" c_height="12" title="U4_1" c_shape="ELLIPSE" pasteExpansion="0" solderExpansion="0.4"><ellipse cx="4051.74" cy="3366.73" rx="6" ry="6" stroke-width="0" /><circle c_padhole="1" cx="4051.7362" cy="3366.7319" r="2.5" stroke-width="0" /></g><g c_partid="part_pad" c_etype="pinpart" c_origin="4065.65,3380.65" layerid="11" number="2" net="U4_2" plated ="Y" c_shapetype="group" id="gge1849" locked="0" c_rotation="45" c_width="12.0079" c_height="12.0079" title="U4_2" c_shape="ELLIPSE" pasteExpansion="0" solderExpansion="0.4"><ellipse cx="4065.65" cy="3380.65" rx="6.00395" ry="6.00395" stroke-width="0" /><circle c_padhole="1" cx="4065.6521" cy="3380.6478" r="2.5" stroke-width="0" /></g><g c_partid="part_pad" c_etype="pinpart" c_origin="3988.87,3451.37" layerid="11" number="1" net="U5_1" plated ="Y" c_shapetype="group" id="gge1414" locked="0" c_rotation="315" c_width="7.874" c_height="7.874" title="U5_1" c_shape="ELLIPSE" pasteExpansion="0" solderExpansion="0.4"><ellipse cx="3988.87" cy="3451.37" rx="3.937" ry="3.937" stroke-width="0" /><circle c_padhole="1" cx="3988.872" cy="3451.372" r="2.3622" stroke-width="0" /></g><g c_partid="part_pad" c_etype="pinpart" c_origin="3979.13,3441.63" layerid="11" number="2" net="GND" plated ="Y" c_shapetype="group" id="gge1419" locked="0" c_rotation="315" c_width="7.874" c_height="7.874" title="GND" c_shape="ELLIPSE" pasteExpansion="0" solderExpansion="0.4"><ellipse cx="3979.13" cy="3441.63" rx="3.937" ry="3.937" stroke-width="0" /><circle c_padhole="1" cx="3979.1284" cy="3441.6284" r="2.3622" stroke-width="0" /></g><g c_partid="part_pad" c_etype="pinpart" c_origin="4056.13,3334.13" layerid="11" number="1" net="U4_1" plated ="Y" c_shapetype="group" id="gge1802" locked="0" c_rotation="135" c_width="7.874" c_height="7.874" title="U4_1" c_shape="ELLIPSE" pasteExpansion="0" solderExpansion="0.4"><ellipse cx="4056.13" cy="3334.13" rx="3.937" ry="3.937" stroke-width="0" /><circle c_padhole="1" cx="4056.128" cy="3334.128" r="2.3622" stroke-width="0" /></g><g c_partid="part_pad" c_etype="pinpart" c_origin="4065.87,3343.87" layerid="11" number="2" net="U4_2" plated ="Y" c_shapetype="group" id="gge1807" locked="0" c_rotation="135" c_width="7.874" c_height="7.874" title="U4_2" c_shape="ELLIPSE" pasteExpansion="0" solderExpansion="0.4"><ellipse cx="4065.87" cy="3343.87" rx="3.937" ry="3.937" stroke-width="0" /><circle c_padhole="1" cx="4065.8716" cy="3343.8716" r="2.3622" stroke-width="0" /></g><g c_partid="part_pad" c_etype="pinpart" c_origin="3976.04,3416.47" layerid="11" number="1" net="GND" plated ="Y" c_shapetype="group" id="gge8" locked="0" c_rotation="45" c_width="3.5433" c_height="6.2992" title="GND" c_shape="RECT" pasteExpansion="0" solderExpansion="0.2"><polygon points="3975.061 3412.985 3972.556 3415.49 3977.01 3419.944 3979.515 3417.439" stroke-width="0" /><circle c_padhole="1" cx="3976.0355" cy="3416.4645" r="1.378" stroke-width="0" /></g><g c_partid="part_pad" c_etype="pinpart" c_origin="3972.5,3420" layerid="11" number="2" net="U5_1" plated ="Y" c_shapetype="group" id="gge13" locked="0" c_rotation="45" c_width="3.5433" c_height="6.2992" title="U5_1" c_shape="OVAL" pasteExpansion="0" solderExpansion="0.2"><polyline points="3971.526 3419.026 3973.474 3420.974" stroke-width="3.5433" /><circle c_padhole="1" cx="3972.5" cy="3420" r="1.378" stroke-width="0" /></g><g c_partid="part_pad" c_etype="pinpart" c_origin="3968.97,3423.54" layerid="11" number="3" net="VCC" plated ="Y" c_shapetype="group" id="gge18" locked="0" c_rotation="45" c_width="3.5433" c_height="6.2992" title="VCC" c_shape="OVAL" pasteExpansion="0" solderExpansion="0.2"><polyline points="3967.996 3422.566 3969.944 3424.514" stroke-width="3.5433" /><circle c_padhole="1" cx="3968.9645" cy="3423.5355" r="1.378" stroke-width="0" /></g><g c_partid="part_via" c_etype="pinpart" c_shapetype="group" net="U2_15" c_origin="4051.32,3427.67" layerid="11" id="gge10290" locked="" solderExpansion=""><circle cx="4051.32" cy="3427.67" r="1.2008" stroke-width="0" /><circle cx="4051.32" cy="3427.67" r="0.6102"  stroke-width="0" /></g><g c_partid="part_via" c_etype="pinpart" c_shapetype="group" net="VCC" c_origin="3967.06,3395.22" layerid="11" id="gge10247" locked="" solderExpansion=""><circle cx="3967.06" cy="3395.22" r="1.2008" stroke-width="0" /><circle cx="3967.06" cy="3395.22" r="0.6102"  stroke-width="0" /></g><g c_partid="part_via" c_etype="pinpart" c_shapetype="group" net="VCC" c_origin="3971.22,3408.57" layerid="11" id="gge10246" locked="" solderExpansion=""><circle cx="3971.22" cy="3408.57" r="1.2008" stroke-width="0" /><circle cx="3971.22" cy="3408.57" r="0.6102"  stroke-width="0" /></g><g c_partid="part_via" c_etype="pinpart" c_shapetype="group" net="U2_16" c_origin="4027.44,3388.38" layerid="11" id="gge10229" locked="" solderExpansion=""><circle cx="4027.44" cy="3388.38" r="1.2008" stroke-width="0" /><circle cx="4027.44" cy="3388.38" r="0.6102"  stroke-width="0" /></g><g c_partid="part_via" c_etype="pinpart" c_shapetype="group" net="U2_14" c_origin="4039.74,3401.17" layerid="11" id="gge10224" locked="" solderExpansion=""><circle cx="4039.74" cy="3401.17" r="1.2008" stroke-width="0" /><circle cx="4039.74" cy="3401.17" r="0.6102"  stroke-width="0" /></g><g c_partid="part_hole" c_etype="pinpart" c_shapetype="group" c_origin="4094.8,3483.8" layerid="11" id="gge6231" ><circle cx="4094.8" cy="3483.8" r="9.8425"  fill="#FFFFFF" stroke-width="0" /><ellipse cx="4094.8" cy="3483.8" rx="9.8425" ry="9.8425" fill="none" stroke-width="1" /></g><g c_partid="part_hole" c_etype="pinpart" c_shapetype="group" c_origin="4094.8,3334.2" layerid="11" id="gge6226" ><circle cx="4094.8" cy="3334.2" r="9.8425"  fill="#FFFFFF" stroke-width="0" /><ellipse cx="4094.8" cy="3334.2" rx="9.8425" ry="9.8425" fill="none" stroke-width="1" /></g><g c_partid="part_hole" c_etype="pinpart" c_shapetype="group" c_origin="3945.2,3483.8" layerid="11" id="gge6221" ><circle cx="3945.2" cy="3483.8" r="9.8425"  fill="#FFFFFF" stroke-width="0" /><ellipse cx="3945.2" cy="3483.8" rx="9.8425" ry="9.8425" fill="none" stroke-width="1" /></g><g c_partid="part_hole" c_etype="pinpart" c_shapetype="group" c_origin="3945.2,3334.2" layerid="11" id="gge6211" ><circle cx="3945.2" cy="3334.2" r="9.8425"  fill="#FFFFFF" stroke-width="0" /><ellipse cx="3945.2" cy="3334.2" rx="9.8425" ry="9.8425" fill="none" stroke-width="1" /></g><g c_partid="part_hole" c_etype="pinpart" c_shapetype="group" c_origin="3902.36,3419.56" layerid="11" id="gge5391" ><circle cx="3902.36" cy="3419.56" r="7.874"  fill="#FFFFFF" stroke-width="0" /><ellipse cx="3902.36" cy="3419.56" rx="7.874" ry="7.874" fill="none" stroke-width="1" /></g><g c_partid="part_hole" c_etype="pinpart" c_shapetype="group" c_origin="3901.98,3413.66" layerid="11" id="gge5386" ><circle cx="3901.98" cy="3413.66" r="7.874"  fill="#FFFFFF" stroke-width="0" /><ellipse cx="3901.98" cy="3413.66" rx="7.874" ry="7.874" fill="none" stroke-width="1" /></g><g c_partid="part_hole" c_etype="pinpart" c_shapetype="group" c_origin="3901.92,3406.26" layerid="11" id="gge5381" ><circle cx="3901.92" cy="3406.26" r="7.874"  fill="#FFFFFF" stroke-width="0" /><ellipse cx="3901.92" cy="3406.26" rx="7.874" ry="7.874" fill="none" stroke-width="1" /></g><g c_partid="part_hole" c_etype="pinpart" c_shapetype="group" c_origin="3902.26,3399.61" layerid="11" id="gge5376" ><circle cx="3902.26" cy="3399.61" r="7.874"  fill="#FFFFFF" stroke-width="0" /><ellipse cx="3902.26" cy="3399.61" rx="7.874" ry="7.874" fill="none" stroke-width="1" /></g><g c_partid="part_hole" c_etype="pinpart" c_shapetype="group" c_origin="4137.01,3392.9" layerid="11" id="gge5371" ><circle cx="4137.01" cy="3392.9" r="7.874"  fill="#FFFFFF" stroke-width="0" /><ellipse cx="4137.01" cy="3392.9" rx="7.874" ry="7.874" fill="none" stroke-width="1" /></g><g c_partid="part_hole" c_etype="pinpart" c_shapetype="group" c_origin="4137.84,3416.99" layerid="11" id="gge5366" ><circle cx="4137.84" cy="3416.99" r="7.874"  fill="#FFFFFF" stroke-width="0" /><ellipse cx="4137.84" cy="3416.99" rx="7.874" ry="7.874" fill="none" stroke-width="1" /></g><g c_partid="part_hole" c_etype="pinpart" c_shapetype="group" c_origin="4137.84,3401.08" layerid="11" id="gge5361" ><circle cx="4137.84" cy="3401.08" r="7.874"  fill="#FFFFFF" stroke-width="0" /><ellipse cx="4137.84" cy="3401.08" rx="7.874" ry="7.874" fill="none" stroke-width="1" /></g><g c_partid="part_hole" c_etype="pinpart" c_shapetype="group" c_origin="4136.14,3428.69" layerid="11" id="gge5318" ><circle cx="4136.14" cy="3428.69" r="11.811"  fill="#FFFFFF" stroke-width="0" /><ellipse cx="4136.14" cy="3428.69" rx="11.811" ry="11.811" fill="none" stroke-width="1" /></g><g c_partid="part_hole" c_etype="pinpart" c_shapetype="group" c_origin="3903.86,3389.32" layerid="11" id="gge5307" ><circle cx="3903.86" cy="3389.32" r="11.811"  fill="#FFFFFF" stroke-width="0" /><ellipse cx="3903.86" cy="3389.32" rx="11.811" ry="11.811" fill="none" stroke-width="1" /></g><g c_partid="part_hole" c_etype="pinpart" c_shapetype="group" c_origin="4138.11,3409" layerid="11" id="gge5282" ><circle cx="4138.11" cy="3409" r="7.874"  fill="#FFFFFF" stroke-width="0" /><ellipse cx="4138.11" cy="3409" rx="7.874" ry="7.874" fill="none" stroke-width="1" /></g><polyline points="3878.268 3267.268 4161.732 3267.268 4161.732 3550.732 3878.268 3550.732 3878.268 3267.268" stroke-width="1" c_shapetype="line" stroke-linecap="round" fill="none" layerid="10" net="" id="gge5229" /></g></svg>