M48
METRIC,LZ,000.000
;FILE_FORMAT=3:3
;TYPE=PLATED
;Layer: PTH_Through
;EasyEDA v6.5.5, 2022-05-12 22:16:57
;08c4366467794e2483e8b99e1b790a1a,62a2711f98894334b0c9608ef6a587eb,10
;Gerber Generator version 0.2
;Holesize 1 = 0.310 mm
T01C0.310
;Holesize 2 = 0.611 mm
T02C0.611
;Holesize 3 = 0.651 mm
T03C0.651
;Holesize 4 = 0.701 mm
T04C0.701
;Holesize 5 = 1.101 mm
T05C1.101
;Holesize 6 = 1.200 mm
T06C1.200
;Holesize 7 = 1.270 mm
T07C1.270
%
G05
G90
T01
X007955Y-004742
X-013447Y003500
X-012390Y000109
X001890Y005237
X005014Y001989
T02
X002104Y-013420
X010591Y000724
X012005Y-000691
X016248Y-004933
X017663Y-006347
X019076Y-007762
X020489Y-009177
X009176Y-020490
X007761Y-019077
X006347Y-017663
X004932Y-016248
X003518Y-014834
T03
X-008536Y007720G85X-008536Y007720
X-007638Y008618G85X-007638Y008618
X-006740Y009516G85X-006740Y009516
X-005842Y010414G85X-005842Y010414
T04
X-011167Y-001896
X-012065Y-002794
X-012963Y-003692
T05
X-011303Y004953
X-006223Y014478
X-008763Y014478
X-011303Y014478
X-013843Y014478
T06
X003250Y-024250
X-003250Y-024250
X003250Y-019750
X-003250Y-019750
X-024250Y-003250
X-024250Y003250
X-019750Y-003250
X-019750Y003250
X-003250Y024250
X003250Y024250
X-003250Y019750
X003250Y019750
X019750Y-003250
X019750Y003250
X024250Y-003250
X024250Y003250
X-007907Y-010762
X-010381Y-008288
X009177Y019017
X011651Y016543
T07
X-016407Y-006375
X-005517Y-017264
X008061Y010736
X011596Y007201
M30
