G04 Layer: TopSolderMaskLayer*
G04 EasyEDA v6.5.5, 2022-05-12 22:16:57*
G04 08c4366467794e2483e8b99e1b790a1a,62a2711f98894334b0c9608ef6a587eb,10*
G04 Gerber Generator version 0.2*
G04 Scale: 100 percent, Rotated: No, Reflected: No *
G04 Dimensions in millimeters *
G04 leading zeros omitted , absolute positions ,4 integer and 5 decimal *
%FSLAX45Y45*%
%MOMM*%

%ADD33C,1.1783*%
%ADD34C,1.0016*%
%ADD36C,2.0032*%
%ADD40C,1.9032*%
%ADD43C,3.2512*%
%ADD44C,3.2532*%
%ADD45C,2.2032*%

%LPD*%
D33*
X-819152Y737516D02*
G01*
X-888083Y806447D01*
X-729338Y827331D02*
G01*
X-798268Y896261D01*
X-639523Y917120D02*
G01*
X-708454Y986050D01*
X-549734Y1006934D02*
G01*
X-618665Y1075865D01*
D34*
X-1231249Y-254650D02*
G01*
X-1181750Y-304149D01*
X-1321038Y-344464D02*
G01*
X-1271539Y-393964D01*
G36*
X-1224457Y1055921D02*
G01*
X-1225981Y1056429D01*
X-1227251Y1057445D01*
X-1227328Y1057402D01*
X-1284223Y1114552D01*
X-1284279Y1114473D01*
X-1285295Y1115743D01*
X-1285803Y1117267D01*
X-1285803Y1118791D01*
X-1285295Y1120315D01*
X-1284279Y1121585D01*
X-1284223Y1121663D01*
X-1223263Y1182623D01*
X-1223185Y1182679D01*
X-1221915Y1183695D01*
X-1220391Y1184203D01*
X-1218867Y1184203D01*
X-1217343Y1183695D01*
X-1216073Y1182679D01*
X-1216152Y1182623D01*
X-1159002Y1125728D01*
X-1159045Y1125651D01*
X-1158029Y1124381D01*
X-1157521Y1122857D01*
X-1157521Y1121333D01*
X-1158029Y1119809D01*
X-1159002Y1118615D01*
X-1220215Y1057402D01*
X-1220139Y1057445D01*
X-1221409Y1056429D01*
X-1222933Y1055921D01*
G37*
G36*
X-1117932Y949396D02*
G01*
X-1119456Y949904D01*
X-1120726Y950920D01*
X-1120647Y950976D01*
X-1177797Y1007871D01*
X-1177754Y1007948D01*
X-1178770Y1009218D01*
X-1179278Y1010742D01*
X-1179278Y1012266D01*
X-1178770Y1013790D01*
X-1177754Y1015060D01*
X-1177797Y1014984D01*
X-1116584Y1076197D01*
X-1116660Y1076154D01*
X-1115390Y1077170D01*
X-1113866Y1077678D01*
X-1112342Y1077678D01*
X-1110818Y1077170D01*
X-1109548Y1076154D01*
X-1109471Y1076197D01*
X-1052576Y1019047D01*
X-1052520Y1019126D01*
X-1051504Y1017856D01*
X-1050996Y1016332D01*
X-1050996Y1014808D01*
X-1051504Y1013284D01*
X-1052520Y1012014D01*
X-1052576Y1011936D01*
X-1113536Y950976D01*
X-1113614Y950920D01*
X-1114884Y949904D01*
X-1116408Y949396D01*
G37*
D36*
G01*
X324993Y-2424988D03*
G01*
X-324993Y-2424988D03*
G01*
X324993Y-1975002D03*
G01*
X-324993Y-1975002D03*
G01*
X-2424988Y-324993D03*
G01*
X-2424988Y324993D03*
G01*
X-1975002Y-324993D03*
G01*
X-1975002Y324993D03*
G01*
X-324993Y2424988D03*
G01*
X324993Y2424988D03*
G01*
X-324993Y1975002D03*
G01*
X324993Y1975002D03*
G01*
X1975027Y-324993D03*
G01*
X1975027Y324993D03*
G01*
X2425014Y-324993D03*
G01*
X2425014Y324993D03*
G36*
X-1538663Y900452D02*
G01*
X-1541711Y901468D01*
X-1544251Y903500D01*
X-1544320Y903478D01*
X-1580387Y939545D01*
X-1580349Y939601D01*
X-1582381Y942141D01*
X-1583397Y945189D01*
X-1583397Y948237D01*
X-1582381Y951285D01*
X-1580349Y953825D01*
X-1580387Y954023D01*
X-1523745Y1010412D01*
X-1523776Y1010401D01*
X-1521236Y1012433D01*
X-1518188Y1013449D01*
X-1515140Y1013449D01*
X-1512092Y1012433D01*
X-1509552Y1010401D01*
X-1509521Y1010412D01*
X-1473454Y974344D01*
X-1473451Y974300D01*
X-1471419Y971760D01*
X-1470403Y968712D01*
X-1470403Y965664D01*
X-1471419Y962616D01*
X-1473451Y960076D01*
X-1473454Y960120D01*
X-1529842Y903478D01*
X-1530027Y903500D01*
X-1532567Y901468D01*
X-1535615Y900452D01*
G37*
G36*
X-1471485Y833277D02*
G01*
X-1474533Y834293D01*
X-1477073Y836325D01*
X-1477263Y836168D01*
X-1513331Y872236D01*
X-1513174Y872426D01*
X-1515206Y874966D01*
X-1516222Y878014D01*
X-1516222Y881062D01*
X-1515206Y884110D01*
X-1513174Y886650D01*
X-1513331Y886713D01*
X-1456689Y943355D01*
X-1456598Y943223D01*
X-1454058Y945255D01*
X-1451010Y946271D01*
X-1447962Y946271D01*
X-1444914Y945255D01*
X-1442374Y943223D01*
X-1442212Y943355D01*
X-1406144Y907287D01*
X-1406276Y907125D01*
X-1404244Y904585D01*
X-1403228Y901537D01*
X-1403228Y898489D01*
X-1404244Y895441D01*
X-1406276Y892901D01*
X-1406144Y892810D01*
X-1462786Y836168D01*
X-1462849Y836325D01*
X-1465389Y834293D01*
X-1468437Y833277D01*
G37*
G36*
X-1404310Y766102D02*
G01*
X-1407358Y767118D01*
X-1409898Y769150D01*
X-1409954Y769112D01*
X-1446021Y805179D01*
X-1445999Y805248D01*
X-1448031Y807788D01*
X-1449047Y810836D01*
X-1449047Y813884D01*
X-1448031Y816932D01*
X-1445999Y819472D01*
X-1446021Y819657D01*
X-1389379Y876045D01*
X-1389423Y876048D01*
X-1386883Y878080D01*
X-1383835Y879096D01*
X-1380787Y879096D01*
X-1377739Y878080D01*
X-1375199Y876048D01*
X-1375155Y876045D01*
X-1339087Y839978D01*
X-1339098Y839947D01*
X-1337066Y837407D01*
X-1336050Y834359D01*
X-1336050Y831311D01*
X-1337066Y828263D01*
X-1339087Y825754D01*
X-1395476Y769112D01*
X-1395674Y769150D01*
X-1398214Y767118D01*
X-1401262Y766102D01*
G37*
G36*
X-1743412Y695703D02*
G01*
X-1746460Y696719D01*
X-1749000Y698751D01*
X-1749044Y698754D01*
X-1785112Y734821D01*
X-1785101Y734852D01*
X-1787133Y737392D01*
X-1788149Y740440D01*
X-1788149Y743488D01*
X-1787133Y746536D01*
X-1785101Y749076D01*
X-1785112Y749045D01*
X-1728723Y805687D01*
X-1728525Y805649D01*
X-1725985Y807681D01*
X-1722937Y808697D01*
X-1719889Y808697D01*
X-1716841Y807681D01*
X-1714301Y805649D01*
X-1714245Y805687D01*
X-1678178Y769620D01*
X-1678200Y769551D01*
X-1676168Y767011D01*
X-1675152Y763963D01*
X-1675152Y760915D01*
X-1676168Y757867D01*
X-1678200Y755327D01*
X-1678178Y755142D01*
X-1734820Y698754D01*
X-1734776Y698751D01*
X-1737316Y696719D01*
X-1740364Y695703D01*
G37*
G36*
X-1676237Y628528D02*
G01*
X-1679285Y629544D01*
X-1681825Y631576D01*
X-1681987Y631444D01*
X-1718055Y667512D01*
X-1717923Y667674D01*
X-1719955Y670214D01*
X-1720971Y673262D01*
X-1720971Y676310D01*
X-1719955Y679358D01*
X-1717923Y681898D01*
X-1718055Y681989D01*
X-1661413Y738631D01*
X-1661350Y738474D01*
X-1658810Y740506D01*
X-1655762Y741522D01*
X-1652714Y741522D01*
X-1649666Y740506D01*
X-1647126Y738474D01*
X-1646936Y738631D01*
X-1610868Y702563D01*
X-1611025Y702373D01*
X-1608993Y699833D01*
X-1607977Y696785D01*
X-1607977Y693737D01*
X-1608993Y690689D01*
X-1611025Y688149D01*
X-1610868Y688086D01*
X-1667510Y631444D01*
X-1667601Y631576D01*
X-1670141Y629544D01*
X-1673189Y628528D01*
G37*
G36*
X-1609059Y561350D02*
G01*
X-1612107Y562366D01*
X-1614647Y564398D01*
X-1614678Y564387D01*
X-1650745Y600455D01*
X-1650748Y600499D01*
X-1652780Y603039D01*
X-1653796Y606087D01*
X-1653796Y609135D01*
X-1652780Y612183D01*
X-1650748Y614723D01*
X-1650745Y614679D01*
X-1594357Y671321D01*
X-1594172Y671299D01*
X-1591632Y673331D01*
X-1588584Y674347D01*
X-1585536Y674347D01*
X-1582488Y673331D01*
X-1579948Y671299D01*
X-1579879Y671321D01*
X-1543812Y635254D01*
X-1543850Y635198D01*
X-1541818Y632658D01*
X-1540802Y629610D01*
X-1540802Y626562D01*
X-1541818Y623514D01*
X-1543850Y620974D01*
X-1543812Y620776D01*
X-1600454Y564387D01*
X-1600423Y564398D01*
X-1602963Y562366D01*
X-1606011Y561350D01*
G37*
G36*
X-1678388Y108374D02*
G01*
X-1681436Y109390D01*
X-1683976Y111422D01*
X-1684020Y111252D01*
X-1793747Y220979D01*
X-1793577Y221023D01*
X-1795609Y223563D01*
X-1796625Y226611D01*
X-1796625Y229659D01*
X-1795609Y232707D01*
X-1793577Y235247D01*
X-1793747Y235204D01*
X-1722881Y306070D01*
X-1722869Y305958D01*
X-1720329Y307990D01*
X-1717281Y309006D01*
X-1714233Y309006D01*
X-1711185Y307990D01*
X-1708657Y305958D01*
X-1598929Y196342D01*
X-1599041Y196354D01*
X-1597009Y193814D01*
X-1595993Y190766D01*
X-1595993Y187718D01*
X-1597009Y184670D01*
X-1599041Y182130D01*
X-1598929Y182118D01*
X-1669795Y111252D01*
X-1669752Y111422D01*
X-1672292Y109390D01*
X-1675340Y108374D01*
G37*
G36*
X-1536966Y249793D02*
G01*
X-1540014Y250809D01*
X-1542554Y252841D01*
X-1652270Y362457D01*
X-1652158Y362445D01*
X-1654190Y364985D01*
X-1655206Y368033D01*
X-1655206Y371081D01*
X-1654190Y374129D01*
X-1652158Y376669D01*
X-1652270Y376681D01*
X-1581404Y447547D01*
X-1581447Y447377D01*
X-1578907Y449409D01*
X-1575859Y450425D01*
X-1572811Y450425D01*
X-1569763Y449409D01*
X-1567223Y447377D01*
X-1567179Y447547D01*
X-1457452Y337820D01*
X-1457622Y337776D01*
X-1455590Y335236D01*
X-1454574Y332188D01*
X-1454574Y329140D01*
X-1455590Y326092D01*
X-1457622Y323552D01*
X-1457452Y323595D01*
X-1528318Y252729D01*
X-1528330Y252841D01*
X-1530870Y250809D01*
X-1533918Y249793D01*
G37*
G36*
X-1487888Y-120225D02*
G01*
X-1490936Y-119209D01*
X-1493476Y-117177D01*
X-1493520Y-117347D01*
X-1603247Y-7620D01*
X-1603077Y-7576D01*
X-1605109Y-5036D01*
X-1606125Y-1988D01*
X-1606125Y1059D01*
X-1605109Y4107D01*
X-1603077Y6647D01*
X-1603247Y6604D01*
X-1532381Y77470D01*
X-1532369Y77358D01*
X-1529829Y79390D01*
X-1526781Y80406D01*
X-1523733Y80406D01*
X-1520685Y79390D01*
X-1518157Y77358D01*
X-1408429Y-32257D01*
X-1408541Y-32245D01*
X-1406509Y-34785D01*
X-1405493Y-37833D01*
X-1405493Y-40881D01*
X-1406509Y-43929D01*
X-1408541Y-46469D01*
X-1408429Y-46481D01*
X-1479295Y-117347D01*
X-1479252Y-117177D01*
X-1481792Y-119209D01*
X-1484840Y-120225D01*
G37*
G36*
X-1346466Y21193D02*
G01*
X-1349514Y22209D01*
X-1352054Y24241D01*
X-1461770Y133857D01*
X-1461658Y133845D01*
X-1463690Y136385D01*
X-1464706Y139433D01*
X-1464706Y142481D01*
X-1463690Y145529D01*
X-1461658Y148069D01*
X-1461770Y148081D01*
X-1390904Y218947D01*
X-1390947Y218777D01*
X-1388407Y220809D01*
X-1385359Y221825D01*
X-1382311Y221825D01*
X-1379263Y220809D01*
X-1376723Y218777D01*
X-1376679Y218947D01*
X-1266952Y109220D01*
X-1267122Y109176D01*
X-1265090Y106636D01*
X-1264074Y103588D01*
X-1264074Y100540D01*
X-1265090Y97492D01*
X-1267122Y94952D01*
X-1266952Y94995D01*
X-1337818Y24129D01*
X-1337830Y24241D01*
X-1340370Y22209D01*
X-1343418Y21193D01*
G37*
G36*
X-1131823Y364929D02*
G01*
X-1134871Y365945D01*
X-1137412Y367977D01*
X-1137412Y367792D01*
X-1257807Y488187D01*
X-1257622Y488187D01*
X-1259654Y490728D01*
X-1260670Y493776D01*
X-1260670Y496823D01*
X-1259654Y499871D01*
X-1257622Y502412D01*
X-1257807Y502412D01*
X-1137412Y622807D01*
X-1137412Y622622D01*
X-1134871Y624654D01*
X-1131823Y625670D01*
X-1128776Y625670D01*
X-1125728Y624654D01*
X-1123187Y622622D01*
X-1123187Y622807D01*
X-1002792Y502412D01*
X-1002977Y502412D01*
X-1000945Y499871D01*
X-999929Y496823D01*
X-999929Y493776D01*
X-1000945Y490728D01*
X-1002977Y488187D01*
X-1002792Y488187D01*
X-1123187Y367792D01*
X-1123187Y367977D01*
X-1125728Y365945D01*
X-1128776Y364929D01*
G37*
G36*
X-707389Y1352550D02*
G01*
X-707301Y1352638D01*
X-710349Y1353146D01*
X-713397Y1354670D01*
X-715429Y1356702D01*
X-716953Y1359750D01*
X-717461Y1362798D01*
X-717550Y1362710D01*
X-717550Y1532889D01*
X-717461Y1532801D01*
X-716953Y1535849D01*
X-715429Y1538897D01*
X-713397Y1540929D01*
X-710349Y1542453D01*
X-707301Y1542961D01*
X-707389Y1543050D01*
X-537210Y1543050D01*
X-537298Y1542961D01*
X-534250Y1542453D01*
X-531202Y1540929D01*
X-529170Y1538897D01*
X-527646Y1535849D01*
X-527138Y1532801D01*
X-527050Y1532889D01*
X-527050Y1362710D01*
X-527138Y1362798D01*
X-527646Y1359750D01*
X-529170Y1356702D01*
X-531202Y1354670D01*
X-534250Y1353146D01*
X-537298Y1352638D01*
X-537210Y1352550D01*
G37*
D40*
G01*
X-876300Y1447825D03*
G01*
X-1130300Y1447825D03*
G01*
X-1384325Y1447800D03*
G36*
X1446413Y-468149D02*
G01*
X1443365Y-467133D01*
X1440825Y-465101D01*
X1440687Y-465073D01*
X1370076Y-394462D01*
X1370114Y-394390D01*
X1368082Y-391850D01*
X1367066Y-388802D01*
X1367066Y-385754D01*
X1368082Y-382706D01*
X1370114Y-380166D01*
X1370076Y-379984D01*
X1511554Y-238760D01*
X1511533Y-238744D01*
X1514073Y-236712D01*
X1517121Y-235696D01*
X1520169Y-235696D01*
X1523217Y-236712D01*
X1525757Y-238744D01*
X1525778Y-238760D01*
X1596644Y-309371D01*
X1596468Y-309455D01*
X1598500Y-311995D01*
X1599516Y-315043D01*
X1599516Y-318091D01*
X1598500Y-321139D01*
X1596468Y-323679D01*
X1596644Y-323850D01*
X1455165Y-465073D01*
X1455049Y-465101D01*
X1452509Y-467133D01*
X1449461Y-468149D01*
G37*
G36*
X1305044Y-326674D02*
G01*
X1301996Y-325658D01*
X1299456Y-323626D01*
X1299463Y-323595D01*
X1228597Y-252984D01*
X1228745Y-252915D01*
X1226713Y-250375D01*
X1225697Y-247327D01*
X1225697Y-244279D01*
X1226713Y-241231D01*
X1228745Y-238691D01*
X1228597Y-238505D01*
X1370076Y-97281D01*
X1370167Y-97269D01*
X1372707Y-95237D01*
X1375755Y-94221D01*
X1378803Y-94221D01*
X1381851Y-95237D01*
X1384391Y-97269D01*
X1384554Y-97281D01*
X1455165Y-167894D01*
X1455102Y-167980D01*
X1457134Y-170520D01*
X1458150Y-173568D01*
X1458150Y-176616D01*
X1457134Y-179664D01*
X1455102Y-182204D01*
X1455165Y-182371D01*
X1313687Y-323595D01*
X1313680Y-323626D01*
X1311140Y-325658D01*
X1308092Y-326674D01*
G37*
G36*
X1976582Y-1352318D02*
G01*
X1973534Y-1351302D01*
X1970994Y-1349270D01*
X1971040Y-1349247D01*
X1829562Y-1208023D01*
X1829572Y-1207851D01*
X1827540Y-1205311D01*
X1826524Y-1202263D01*
X1826524Y-1199215D01*
X1827540Y-1196167D01*
X1829572Y-1193627D01*
X1829562Y-1193545D01*
X1900173Y-1122934D01*
X1900283Y-1122916D01*
X1902823Y-1120884D01*
X1905871Y-1119868D01*
X1908919Y-1119868D01*
X1911967Y-1120884D01*
X1914507Y-1122916D01*
X1914652Y-1122934D01*
X2055875Y-1264157D01*
X2055926Y-1264335D01*
X2057958Y-1266875D01*
X2058974Y-1269923D01*
X2058974Y-1272971D01*
X2057958Y-1276019D01*
X2055926Y-1278559D01*
X2055875Y-1278636D01*
X1985263Y-1349247D01*
X1985218Y-1349270D01*
X1982678Y-1351302D01*
X1979630Y-1352318D01*
G37*
G36*
X1835106Y-1493687D02*
G01*
X1832058Y-1492671D01*
X1829518Y-1490639D01*
X1829562Y-1490726D01*
X1688084Y-1349247D01*
X1688096Y-1349217D01*
X1686064Y-1346677D01*
X1685048Y-1343629D01*
X1685048Y-1340581D01*
X1686064Y-1337533D01*
X1688096Y-1334993D01*
X1688084Y-1335023D01*
X1758695Y-1264157D01*
X1758807Y-1264282D01*
X1761347Y-1262250D01*
X1764395Y-1261234D01*
X1767443Y-1261234D01*
X1770491Y-1262250D01*
X1773031Y-1264282D01*
X1773173Y-1264157D01*
X1914652Y-1405636D01*
X1914453Y-1405704D01*
X1916485Y-1408244D01*
X1917501Y-1411292D01*
X1917501Y-1414340D01*
X1916485Y-1417388D01*
X1914453Y-1419928D01*
X1914652Y-1420113D01*
X1843786Y-1490726D01*
X1843742Y-1490639D01*
X1841202Y-1492671D01*
X1838154Y-1493687D01*
G37*
G36*
X1693738Y-1635053D02*
G01*
X1690690Y-1634037D01*
X1688150Y-1632005D01*
X1688084Y-1632204D01*
X1546605Y-1490726D01*
X1546730Y-1490583D01*
X1544698Y-1488043D01*
X1543682Y-1484995D01*
X1543682Y-1481947D01*
X1544698Y-1478899D01*
X1546730Y-1476359D01*
X1546605Y-1476247D01*
X1617471Y-1405636D01*
X1617441Y-1405651D01*
X1619981Y-1403619D01*
X1623029Y-1402603D01*
X1626077Y-1402603D01*
X1629125Y-1403619D01*
X1631665Y-1405651D01*
X1631695Y-1405636D01*
X1773173Y-1547113D01*
X1773085Y-1547070D01*
X1775117Y-1549610D01*
X1776133Y-1552658D01*
X1776133Y-1555706D01*
X1775117Y-1558754D01*
X1773085Y-1561294D01*
X1773173Y-1561337D01*
X1702562Y-1632204D01*
X1702374Y-1632005D01*
X1699834Y-1634037D01*
X1696786Y-1635053D01*
G37*
G36*
X1552265Y-1776529D02*
G01*
X1549217Y-1775513D01*
X1546677Y-1773481D01*
X1546605Y-1773428D01*
X1405128Y-1632204D01*
X1405254Y-1632059D01*
X1403222Y-1629519D01*
X1402206Y-1626471D01*
X1402206Y-1623423D01*
X1403222Y-1620375D01*
X1405254Y-1617835D01*
X1405128Y-1617726D01*
X1475994Y-1547113D01*
X1475966Y-1547124D01*
X1478506Y-1545092D01*
X1481554Y-1544076D01*
X1484602Y-1544076D01*
X1487650Y-1545092D01*
X1490190Y-1547124D01*
X1490218Y-1547113D01*
X1631695Y-1688592D01*
X1631609Y-1688546D01*
X1633641Y-1691086D01*
X1634657Y-1694134D01*
X1634657Y-1697182D01*
X1633641Y-1700230D01*
X1631609Y-1702770D01*
X1631695Y-1702815D01*
X1561084Y-1773428D01*
X1560901Y-1773481D01*
X1558361Y-1775513D01*
X1555313Y-1776529D01*
G37*
G36*
X1410896Y-1917824D02*
G01*
X1407848Y-1916808D01*
X1405308Y-1914776D01*
X1405128Y-1914905D01*
X1263904Y-1773428D01*
X1263888Y-1773354D01*
X1261856Y-1770814D01*
X1260840Y-1767766D01*
X1260840Y-1764718D01*
X1261856Y-1761670D01*
X1263888Y-1759130D01*
X1263904Y-1758950D01*
X1334515Y-1688337D01*
X1334597Y-1688421D01*
X1337137Y-1686389D01*
X1340185Y-1685373D01*
X1343233Y-1685373D01*
X1346281Y-1686389D01*
X1348821Y-1688421D01*
X1348994Y-1688337D01*
X1490218Y-1829815D01*
X1490243Y-1829841D01*
X1492275Y-1832381D01*
X1493291Y-1835429D01*
X1493291Y-1838477D01*
X1492275Y-1841525D01*
X1490243Y-1844065D01*
X1490218Y-1844039D01*
X1419605Y-1914905D01*
X1419532Y-1914776D01*
X1416992Y-1916808D01*
X1413944Y-1917824D01*
G37*
G36*
X1269728Y-2059208D02*
G01*
X1266680Y-2058192D01*
X1264140Y-2056160D01*
X1264157Y-2056129D01*
X1122679Y-1914905D01*
X1122718Y-1914740D01*
X1120686Y-1912200D01*
X1119670Y-1909152D01*
X1119670Y-1906104D01*
X1120686Y-1903056D01*
X1122718Y-1900516D01*
X1122679Y-1900428D01*
X1193292Y-1829815D01*
X1193429Y-1829805D01*
X1195969Y-1827773D01*
X1199017Y-1826757D01*
X1202065Y-1826757D01*
X1205113Y-1827773D01*
X1207653Y-1829805D01*
X1207770Y-1829815D01*
X1349247Y-1971039D01*
X1349072Y-1971227D01*
X1351104Y-1973767D01*
X1352120Y-1976815D01*
X1352120Y-1979863D01*
X1351104Y-1982911D01*
X1349072Y-1985451D01*
X1349247Y-1985518D01*
X1278381Y-2056129D01*
X1278364Y-2056160D01*
X1275824Y-2058192D01*
X1272776Y-2059208D01*
G37*
G36*
X32092Y-1316781D02*
G01*
X29044Y-1315765D01*
X26504Y-1313733D01*
X26415Y-1313687D01*
X-44195Y-1243076D01*
X-44203Y-1243025D01*
X-46235Y-1240485D01*
X-47251Y-1237437D01*
X-47251Y-1234389D01*
X-46235Y-1231341D01*
X-44203Y-1228801D01*
X-44195Y-1228852D01*
X97028Y-1087373D01*
X97215Y-1087379D01*
X99755Y-1085347D01*
X102803Y-1084331D01*
X105851Y-1084331D01*
X108899Y-1085347D01*
X111439Y-1087379D01*
X111505Y-1087373D01*
X182118Y-1157986D01*
X182151Y-1158090D01*
X184183Y-1160630D01*
X185199Y-1163678D01*
X185199Y-1166726D01*
X184183Y-1169774D01*
X182151Y-1172314D01*
X182118Y-1172463D01*
X40894Y-1313687D01*
X40728Y-1313733D01*
X38188Y-1315765D01*
X35140Y-1316781D01*
G37*
G36*
X-109326Y-1175362D02*
G01*
X-112374Y-1174346D01*
X-114914Y-1172314D01*
X-115062Y-1172463D01*
X-185673Y-1101597D01*
X-185625Y-1101603D01*
X-187657Y-1099063D01*
X-188673Y-1096015D01*
X-188673Y-1092967D01*
X-187657Y-1089919D01*
X-185625Y-1087379D01*
X-185673Y-1087373D01*
X-44195Y-945895D01*
X-41663Y-943924D01*
X-38615Y-942908D01*
X-35567Y-942908D01*
X-32519Y-943924D01*
X-29979Y-945956D01*
X-29971Y-945895D01*
X40894Y-1016507D01*
X40728Y-1016668D01*
X42760Y-1019208D01*
X43776Y-1022256D01*
X43776Y-1025304D01*
X42760Y-1028352D01*
X40728Y-1030892D01*
X40894Y-1030986D01*
X-100584Y-1172463D01*
X-100690Y-1172314D01*
X-103230Y-1174346D01*
X-106278Y-1175362D01*
G37*
G36*
X173515Y-1458203D02*
G01*
X170467Y-1457187D01*
X167927Y-1455155D01*
X167894Y-1455165D01*
X97028Y-1384554D01*
X97215Y-1384444D01*
X95183Y-1381904D01*
X94167Y-1378856D01*
X94167Y-1375808D01*
X95183Y-1372760D01*
X97215Y-1370220D01*
X97028Y-1370076D01*
X238505Y-1228852D01*
X238638Y-1228801D01*
X241178Y-1226769D01*
X244226Y-1225753D01*
X247274Y-1225753D01*
X250322Y-1226769D01*
X252862Y-1228801D01*
X252984Y-1228852D01*
X323595Y-1299463D01*
X323570Y-1299509D01*
X325602Y-1302049D01*
X326618Y-1305097D01*
X326618Y-1308145D01*
X325602Y-1311193D01*
X323595Y-1313687D01*
X182118Y-1455165D01*
X182151Y-1455155D01*
X179611Y-1457187D01*
X176563Y-1458203D01*
G37*
G36*
X1022202Y-43832D02*
G01*
X1019154Y-42816D01*
X1016614Y-40784D01*
X1016507Y-40894D01*
X945895Y29971D01*
X943871Y32466D01*
X942855Y35514D01*
X942855Y38562D01*
X943871Y41610D01*
X945903Y44150D01*
X945895Y44195D01*
X1087325Y185572D01*
X1089865Y187604D01*
X1092913Y188620D01*
X1095961Y188620D01*
X1099009Y187604D01*
X1101549Y185572D01*
X1101597Y185673D01*
X1172210Y114807D01*
X1172260Y114861D01*
X1174292Y112321D01*
X1175308Y109273D01*
X1175308Y106225D01*
X1174292Y103177D01*
X1172260Y100637D01*
X1172210Y100584D01*
X1030986Y-40894D01*
X1030838Y-40784D01*
X1028298Y-42816D01*
X1025250Y-43832D01*
G37*
G36*
X1163607Y-185270D02*
G01*
X1160559Y-184254D01*
X1158019Y-182222D01*
X1157986Y-182371D01*
X1087120Y-111505D01*
X1087307Y-111511D01*
X1085275Y-108971D01*
X1084259Y-105923D01*
X1084259Y-102875D01*
X1085275Y-99827D01*
X1087307Y-97287D01*
X1087120Y-97281D01*
X1228597Y44195D01*
X1228727Y44132D01*
X1231267Y46164D01*
X1234315Y47180D01*
X1237363Y47180D01*
X1240411Y46164D01*
X1242951Y44132D01*
X1243076Y44195D01*
X1313687Y-26415D01*
X1313662Y-26578D01*
X1315694Y-29118D01*
X1316710Y-32166D01*
X1316710Y-35214D01*
X1315694Y-38262D01*
X1313662Y-40802D01*
X1313687Y-40894D01*
X1172210Y-182371D01*
X1172243Y-182222D01*
X1169703Y-184254D01*
X1166655Y-185270D01*
G37*
G36*
X1587886Y-609516D02*
G01*
X1584838Y-608500D01*
X1582298Y-606468D01*
X1582165Y-606552D01*
X1511554Y-535939D01*
X1511589Y-535757D01*
X1509557Y-533217D01*
X1508541Y-530169D01*
X1508541Y-527121D01*
X1509557Y-524073D01*
X1511589Y-521533D01*
X1511554Y-521462D01*
X1653009Y-380111D01*
X1655549Y-378079D01*
X1658597Y-377062D01*
X1661645Y-377062D01*
X1664693Y-378079D01*
X1667233Y-380111D01*
X1667255Y-379984D01*
X1738121Y-450850D01*
X1737944Y-450822D01*
X1739976Y-453362D01*
X1740992Y-456410D01*
X1740992Y-459458D01*
X1739976Y-462506D01*
X1737944Y-465046D01*
X1738121Y-465073D01*
X1596644Y-606552D01*
X1596522Y-606468D01*
X1593982Y-608500D01*
X1590934Y-609516D01*
G37*
G36*
X1729364Y-750884D02*
G01*
X1726316Y-749868D01*
X1723776Y-747836D01*
X1723644Y-748029D01*
X1653031Y-677163D01*
X1653065Y-677125D01*
X1651033Y-674585D01*
X1650017Y-671537D01*
X1650017Y-668489D01*
X1651033Y-665441D01*
X1653065Y-662901D01*
X1653031Y-662939D01*
X1794510Y-521462D01*
X1797027Y-519450D01*
X1800075Y-518434D01*
X1803123Y-518434D01*
X1806171Y-519450D01*
X1808711Y-521482D01*
X1808734Y-521462D01*
X1879600Y-592073D01*
X1879422Y-592190D01*
X1881454Y-594730D01*
X1882470Y-597778D01*
X1882470Y-600826D01*
X1881454Y-603874D01*
X1879422Y-606414D01*
X1879600Y-606552D01*
X1738121Y-748029D01*
X1738000Y-747836D01*
X1735460Y-749868D01*
X1732412Y-750884D01*
G37*
G36*
X1870694Y-892395D02*
G01*
X1867646Y-891379D01*
X1865106Y-889347D01*
X1865121Y-889507D01*
X1794255Y-818642D01*
X1794395Y-818636D01*
X1792363Y-816096D01*
X1791347Y-813048D01*
X1791347Y-810000D01*
X1792363Y-806952D01*
X1794395Y-804412D01*
X1794255Y-804418D01*
X1935734Y-662939D01*
X1935817Y-662993D01*
X1938357Y-660961D01*
X1941405Y-659945D01*
X1944453Y-659945D01*
X1947501Y-660961D01*
X1950041Y-662993D01*
X1950211Y-662939D01*
X2020824Y-733552D01*
X2020752Y-733701D01*
X2022784Y-736241D01*
X2023800Y-739289D01*
X2023800Y-742337D01*
X2022784Y-745385D01*
X2020752Y-747925D01*
X2020824Y-748029D01*
X1879345Y-889507D01*
X1879330Y-889347D01*
X1876790Y-891379D01*
X1873742Y-892395D01*
G37*
G36*
X2012007Y-1033924D02*
G01*
X2008959Y-1032908D01*
X2006419Y-1030876D01*
X2006345Y-1030986D01*
X1935734Y-960120D01*
X1935711Y-960165D01*
X1933679Y-957625D01*
X1932663Y-954577D01*
X1932663Y-951529D01*
X1933679Y-948481D01*
X1935711Y-945941D01*
X1935734Y-945895D01*
X2076958Y-804418D01*
X2077130Y-804522D01*
X2079670Y-802490D01*
X2082718Y-801474D01*
X2085766Y-801474D01*
X2088814Y-802490D01*
X2091354Y-804522D01*
X2091436Y-804418D01*
X2162047Y-875284D01*
X2162065Y-875230D01*
X2164097Y-877770D01*
X2165113Y-880818D01*
X2165113Y-883866D01*
X2164097Y-886914D01*
X2162065Y-889454D01*
X2162047Y-889507D01*
X2020824Y-1030986D01*
X2020643Y-1030876D01*
X2018103Y-1032908D01*
X2015055Y-1033924D01*
G37*
G36*
X880676Y-2165256D02*
G01*
X877628Y-2164240D01*
X875088Y-2162208D01*
X875029Y-2162302D01*
X804418Y-2091689D01*
X804377Y-2091499D01*
X802345Y-2088959D01*
X801329Y-2085911D01*
X801329Y-2082863D01*
X802345Y-2079815D01*
X804377Y-2077275D01*
X804418Y-2077212D01*
X945642Y-1935734D01*
X945799Y-1935853D01*
X948339Y-1933821D01*
X951387Y-1932805D01*
X954435Y-1932805D01*
X957483Y-1933821D01*
X960023Y-1935853D01*
X960120Y-1935734D01*
X1030731Y-2006600D01*
X1032763Y-2009104D01*
X1033779Y-2012152D01*
X1033779Y-2015200D01*
X1032763Y-2018248D01*
X1030731Y-2020788D01*
X1030731Y-2020823D01*
X889507Y-2162302D01*
X889312Y-2162208D01*
X886772Y-2164240D01*
X883724Y-2165256D01*
G37*
G36*
X739200Y-2023889D02*
G01*
X736152Y-2022873D01*
X733612Y-2020841D01*
X733552Y-2020823D01*
X662939Y-1950212D01*
X662901Y-1950130D01*
X660869Y-1947590D01*
X659853Y-1944542D01*
X659853Y-1941494D01*
X660869Y-1938446D01*
X662901Y-1935906D01*
X662939Y-1935734D01*
X804163Y-1794510D01*
X804324Y-1794487D01*
X806864Y-1792455D01*
X809912Y-1791439D01*
X812960Y-1791439D01*
X816008Y-1792455D01*
X818548Y-1794487D01*
X818642Y-1794510D01*
X889254Y-1865121D01*
X889259Y-1865198D01*
X891291Y-1867738D01*
X892307Y-1870786D01*
X892307Y-1873834D01*
X891291Y-1876882D01*
X889259Y-1879422D01*
X889254Y-1879600D01*
X748029Y-2020823D01*
X747836Y-2020841D01*
X745296Y-2022873D01*
X742248Y-2023889D01*
G37*
G36*
X597778Y-1882470D02*
G01*
X594730Y-1881454D01*
X592190Y-1879422D01*
X592073Y-1879600D01*
X521462Y-1808734D01*
X521482Y-1808711D01*
X519450Y-1806171D01*
X518434Y-1803123D01*
X518434Y-1800075D01*
X519450Y-1797027D01*
X521482Y-1794487D01*
X521462Y-1794510D01*
X662939Y-1653031D01*
X665441Y-1651033D01*
X668489Y-1650017D01*
X671537Y-1650017D01*
X674585Y-1651033D01*
X677125Y-1653065D01*
X677163Y-1653031D01*
X748029Y-1723644D01*
X747836Y-1723776D01*
X749868Y-1726316D01*
X750884Y-1729364D01*
X750884Y-1732412D01*
X749868Y-1735460D01*
X747836Y-1738000D01*
X748029Y-1738121D01*
X606552Y-1879600D01*
X606414Y-1879422D01*
X603874Y-1881454D01*
X600826Y-1882470D01*
G37*
G36*
X456356Y-1741045D02*
G01*
X453308Y-1740029D01*
X450768Y-1737997D01*
X450595Y-1738121D01*
X379984Y-1667255D01*
X380057Y-1667286D01*
X378025Y-1664746D01*
X377009Y-1661698D01*
X377009Y-1658650D01*
X378025Y-1655602D01*
X380057Y-1653062D01*
X379984Y-1653031D01*
X521462Y-1511554D01*
X521479Y-1511642D01*
X524019Y-1509610D01*
X527067Y-1508594D01*
X530115Y-1508594D01*
X533163Y-1509610D01*
X535686Y-1511554D01*
X606552Y-1582165D01*
X606414Y-1582353D01*
X608446Y-1584893D01*
X609462Y-1587941D01*
X609462Y-1590989D01*
X608446Y-1594037D01*
X606414Y-1596577D01*
X606552Y-1596644D01*
X465073Y-1738121D01*
X464992Y-1737997D01*
X462452Y-1740029D01*
X459404Y-1741045D01*
G37*
G36*
X314934Y-1599625D02*
G01*
X311886Y-1598609D01*
X309346Y-1596577D01*
X309371Y-1596644D01*
X238505Y-1526031D01*
X238638Y-1525866D01*
X236606Y-1523326D01*
X235590Y-1520278D01*
X235590Y-1517230D01*
X236606Y-1514182D01*
X238638Y-1511642D01*
X238505Y-1511554D01*
X379984Y-1370076D01*
X380057Y-1370220D01*
X382597Y-1368188D01*
X385645Y-1367172D01*
X388693Y-1367172D01*
X391741Y-1368188D01*
X394281Y-1370220D01*
X394462Y-1370076D01*
X465073Y-1440942D01*
X464992Y-1440931D01*
X467024Y-1443471D01*
X468040Y-1446519D01*
X468040Y-1449567D01*
X467024Y-1452615D01*
X464992Y-1455155D01*
X465073Y-1455165D01*
X323595Y-1596644D01*
X323570Y-1596577D01*
X321030Y-1598609D01*
X317982Y-1599625D01*
G37*
G36*
X-894026Y-44838D02*
G01*
X-897074Y-43822D01*
X-899614Y-41790D01*
X-899668Y-41910D01*
X-956310Y14731D01*
X-956190Y14785D01*
X-958222Y17325D01*
X-959238Y20373D01*
X-959238Y23421D01*
X-958222Y26469D01*
X-956190Y29009D01*
X-956310Y28955D01*
X-892609Y92590D01*
X-890069Y94622D01*
X-887021Y95638D01*
X-883973Y95638D01*
X-880925Y94622D01*
X-878385Y92590D01*
X-878331Y92710D01*
X-821689Y36068D01*
X-821809Y36014D01*
X-819777Y33474D01*
X-818761Y30426D01*
X-818761Y27378D01*
X-819777Y24330D01*
X-821809Y21790D01*
X-821689Y21844D01*
X-885390Y-41790D01*
X-887930Y-43822D01*
X-890978Y-44838D01*
G37*
G36*
X-802068Y47119D02*
G01*
X-805116Y48135D01*
X-807656Y50167D01*
X-807720Y50037D01*
X-864362Y106679D01*
X-864232Y106743D01*
X-866264Y109283D01*
X-867280Y112331D01*
X-867280Y115379D01*
X-866264Y118427D01*
X-864232Y120967D01*
X-864362Y121157D01*
X-800651Y184548D01*
X-798111Y186580D01*
X-795063Y187596D01*
X-792015Y187596D01*
X-788967Y186580D01*
X-786427Y184548D01*
X-786384Y184657D01*
X-729742Y128015D01*
X-729851Y127972D01*
X-727819Y125432D01*
X-726803Y122384D01*
X-726803Y119336D01*
X-727819Y116288D01*
X-729851Y113748D01*
X-729742Y113792D01*
X-793242Y50037D01*
X-793432Y50167D01*
X-795972Y48135D01*
X-799020Y47119D01*
G37*
D43*
G01*
X-1640662Y-637489D03*
G01*
X-551713Y-1726437D03*
G01*
X806094Y1073607D03*
D44*
G01*
X1159560Y720140D03*
D45*
G01*
X-790676Y-1076223D03*
G01*
X-1038148Y-828751D03*
G01*
X917676Y1901723D03*
G01*
X1165148Y1654251D03*
G36*
X-1092710Y-283067D02*
G01*
X-1094234Y-282559D01*
X-1095504Y-281543D01*
X-1095502Y-281686D01*
X-1208786Y-168402D01*
X-1208643Y-168404D01*
X-1209659Y-167134D01*
X-1210167Y-165610D01*
X-1210167Y-164086D01*
X-1209659Y-162562D01*
X-1208643Y-161292D01*
X-1208786Y-161289D01*
X-1145031Y-97536D01*
X-1145001Y-97652D01*
X-1143731Y-96636D01*
X-1142207Y-96128D01*
X-1140683Y-96128D01*
X-1139159Y-96636D01*
X-1137920Y-97652D01*
X-1024636Y-210820D01*
X-1024752Y-210789D01*
X-1023736Y-212059D01*
X-1023228Y-213583D01*
X-1023228Y-215107D01*
X-1023736Y-216631D01*
X-1024752Y-217901D01*
X-1024636Y-217931D01*
X-1088389Y-281686D01*
X-1088392Y-281543D01*
X-1089662Y-282559D01*
X-1091186Y-283067D01*
G37*
M02*
