G04 Layer: TopLayer*
G04 EasyEDA v6.5.5, 2022-05-12 22:16:57*
G04 08c4366467794e2483e8b99e1b790a1a,62a2711f98894334b0c9608ef6a587eb,10*
G04 Gerber Generator version 0.2*
G04 Scale: 100 percent, Rotated: No, Reflected: No *
G04 Dimensions in millimeters *
G04 leading zeros omitted , absolute positions ,4 integer and 5 decimal *
%FSLAX45Y45*%
%MOMM*%

%ADD11C,0.2600*%
%ADD12C,0.6100*%
%ADD18C,1.8000*%
%ADD19R,1.7000X1.7000*%
%ADD20C,1.7000*%
%ADD21C,3.0480*%
%ADD22C,3.0500*%
%ADD23C,2.0000*%
%ADD25C,0.9751*%
%ADD26C,0.9000*%

%LPD*%
D11*
X-763778Y861821D02*
G01*
X-915415Y1013460D01*
X-1115060Y1013460D01*
X-673862Y951484D02*
G01*
X751586Y-474218D01*
X795528Y-474218D01*
X493268Y-1624837D02*
G01*
X455421Y-1662429D01*
X51307Y-1662429D01*
X-238252Y-1372870D01*
X-1376934Y-1372870D01*
X-2424937Y-325120D01*
X-2424937Y-325120D02*
G01*
X-2424937Y324865D01*
X1766315Y-634745D02*
G01*
X1737360Y-663702D01*
X255778Y-663702D01*
X-1230376Y822705D01*
X-1392428Y822705D01*
X-1313687Y495300D02*
G01*
X-1573784Y755142D01*
X-1573784Y910081D01*
X-1526794Y956818D01*
X-1130300Y495300D02*
G01*
X-1182370Y495300D01*
X-1182370Y495300D02*
G01*
X-1313687Y495300D01*
X-1182370Y495300D02*
G01*
X-1182370Y303529D01*
X-1364487Y121412D01*
X1483360Y-352044D02*
G01*
X1455165Y-379984D01*
X947673Y-379984D01*
X-132334Y700023D01*
X-132334Y755904D01*
X-662431Y1286002D01*
X-1222502Y1286002D01*
X-1384300Y1447800D01*
X325120Y2424937D02*
G01*
X-324865Y2424937D01*
X-324865Y-2424937D02*
G01*
X325120Y-2424937D01*
X-1038097Y-828802D02*
G01*
X-1449323Y-828802D01*
X-1640586Y-637539D01*
X-1640586Y-637539D02*
G01*
X-1662429Y-637539D01*
X-1975104Y-325120D01*
X-1116584Y-189737D02*
G01*
X-1208023Y-98297D01*
X-1427479Y-98297D01*
X-1505712Y-19812D01*
X-1505712Y-19812D02*
G01*
X-1696212Y170687D01*
X-1696212Y208787D01*
X-1459737Y889762D02*
G01*
X-1343913Y1005586D01*
X-1343913Y1120139D01*
X-1221739Y1120139D02*
G01*
X-1343913Y1120139D01*
X1888744Y-917702D02*
G01*
X1799844Y-828802D01*
X-1038097Y-828802D01*
X2049018Y-917702D02*
G01*
X1888744Y-917702D01*
X325120Y1975104D02*
G01*
X-324865Y1975104D01*
X-1696212Y208787D02*
G01*
X-1858771Y208787D01*
X-1975104Y324865D01*
X-1975104Y324865D02*
G01*
X-1975104Y651510D01*
X-1506473Y1120139D01*
X-1506473Y1120139D02*
G01*
X-1343913Y1120139D01*
X-1506473Y1120139D02*
G01*
X-1539494Y1153160D01*
X-1539494Y1515363D01*
X-1448054Y1607057D01*
X-876300Y1607057D01*
X-876300Y1447800D02*
G01*
X-876300Y1607057D01*
X-876300Y1607057D02*
G01*
X-508254Y1975104D01*
X-324865Y1975104D01*
X-1206500Y-279400D02*
G01*
X-1134871Y-351028D01*
X-1066037Y-351028D01*
X-750062Y-35052D01*
X-750062Y70357D01*
X-797052Y117347D01*
X-1554987Y350012D02*
G01*
X-1708150Y503428D01*
X-1708150Y641350D01*
X-1664462Y685037D01*
X-1731518Y752094D02*
G01*
X-1664462Y685037D01*
X-324865Y-1975104D02*
G01*
X325120Y-1975104D01*
X-1554987Y350012D02*
G01*
X-1344676Y350012D01*
X-889000Y25400D02*
G01*
X-1012189Y25400D01*
X-1012189Y25400D02*
G01*
X-1026921Y10921D01*
X-1239012Y10921D01*
X1059179Y72389D02*
G01*
X898905Y72389D01*
X898905Y72389D02*
G01*
X447547Y523747D01*
X188976Y523747D01*
X-584200Y1041400D02*
G01*
X997457Y-540257D01*
X1577847Y-540257D01*
X1624837Y-493268D01*
X501395Y198881D02*
G01*
X957326Y-257047D01*
X1295400Y-257047D01*
X1341881Y-210565D01*
G36*
X-1162601Y1122095D02*
G01*
X-1223695Y1061001D01*
X-1280723Y1118029D01*
X-1219629Y1179123D01*
G37*
G36*
X-1113104Y1072598D02*
G01*
X-1174198Y1011504D01*
X-1117170Y954476D01*
X-1056076Y1015570D01*
G37*
G36*
X-1480563Y967188D02*
G01*
X-1537139Y910612D01*
X-1573237Y946713D01*
X-1516664Y1003289D01*
G37*
G36*
X-1413388Y900013D02*
G01*
X-1469961Y843437D01*
X-1506062Y879538D01*
X-1449486Y936111D01*
G37*
G36*
X-1346210Y832835D02*
G01*
X-1402786Y776262D01*
X-1438887Y812360D01*
X-1382311Y868936D01*
G37*
G36*
X-1685312Y762439D02*
G01*
X-1741888Y705863D01*
X-1777989Y741964D01*
X-1721413Y798537D01*
G37*
G36*
X-1618137Y695261D02*
G01*
X-1674713Y638688D01*
X-1710811Y674786D01*
X-1654238Y731362D01*
G37*
G36*
X-1550962Y628086D02*
G01*
X-1607535Y571510D01*
X-1643636Y607611D01*
X-1587060Y664187D01*
G37*
G36*
X-1786465Y228135D02*
G01*
X-1715757Y298846D01*
X-1606153Y189242D01*
X-1676864Y118534D01*
G37*
G36*
X-1645046Y369557D02*
G01*
X-1574335Y440265D01*
X-1464734Y330664D01*
X-1535442Y259953D01*
G37*
G36*
X-1595965Y-464D02*
G01*
X-1525257Y70246D01*
X-1415653Y-39357D01*
X-1486364Y-110065D01*
G37*
G36*
X-1454546Y140957D02*
G01*
X-1383835Y211665D01*
X-1274234Y102064D01*
X-1344942Y31353D01*
G37*
G36*
X1589356Y-316567D02*
G01*
X1447937Y-457989D01*
X1377226Y-387278D01*
X1518645Y-245856D01*
G37*
G36*
X1447990Y-175092D02*
G01*
X1306568Y-316514D01*
X1235857Y-245803D01*
X1377279Y-104381D01*
G37*
G36*
X1978106Y-1342158D02*
G01*
X1836684Y-1200739D01*
X1907395Y-1130028D01*
X2048814Y-1271447D01*
G37*
G36*
X1836630Y-1483527D02*
G01*
X1695208Y-1342105D01*
X1765919Y-1271394D01*
X1907341Y-1412816D01*
G37*
G36*
X1695262Y-1624893D02*
G01*
X1553842Y-1483471D01*
X1624553Y-1412763D01*
X1765973Y-1554182D01*
G37*
G36*
X1553789Y-1766369D02*
G01*
X1412367Y-1624947D01*
X1483078Y-1554236D01*
X1624497Y-1695658D01*
G37*
G36*
X1412420Y-1907664D02*
G01*
X1271000Y-1766242D01*
X1341709Y-1695533D01*
X1483131Y-1836953D01*
G37*
G36*
X1271252Y-2049048D02*
G01*
X1129830Y-1907628D01*
X1200541Y-1836917D01*
X1341960Y-1978339D01*
G37*
G36*
X-37091Y-1235913D02*
G01*
X104327Y-1094491D01*
X175039Y-1165202D01*
X33616Y-1306621D01*
G37*
G36*
X-178513Y-1094491D02*
G01*
X-37091Y-953068D01*
X33616Y-1023780D01*
X-107802Y-1165202D01*
G37*
G36*
X-949078Y21897D02*
G01*
X-885497Y85478D01*
X-828921Y28902D01*
X-892502Y-34678D01*
G37*
G36*
X-857120Y113855D02*
G01*
X-793539Y177436D01*
X-736963Y120860D01*
X-800544Y57279D01*
G37*
D18*
G01*
X324993Y-2424988D03*
G01*
X-324993Y-2424988D03*
G01*
X324993Y-1975002D03*
G01*
X-324993Y-1975002D03*
G01*
X-2424988Y-324993D03*
G01*
X-2424988Y324993D03*
G01*
X-1975002Y-324993D03*
G01*
X-1975002Y324993D03*
G01*
X-324993Y2424988D03*
G01*
X324993Y2424988D03*
G01*
X-324993Y1975002D03*
G01*
X324993Y1975002D03*
G01*
X1975027Y-324993D03*
G01*
X1975027Y324993D03*
G01*
X2425014Y-324993D03*
G01*
X2425014Y324993D03*
G36*
X-1130300Y615510D02*
G01*
X-1010089Y495300D01*
X-1130300Y375089D01*
X-1250510Y495300D01*
G37*
D19*
G01*
X-622300Y1447800D03*
D20*
G01*
X-876300Y1447825D03*
G01*
X-1130300Y1447825D03*
G01*
X-1384325Y1447800D03*
G36*
X104327Y-1377332D02*
G01*
X245750Y-1235913D01*
X316458Y-1306621D01*
X175039Y-1448043D01*
G37*
G36*
X1165148Y107749D02*
G01*
X1023726Y-33672D01*
X953015Y37038D01*
X1094437Y178460D01*
G37*
G36*
X1306550Y-33690D02*
G01*
X1165131Y-175110D01*
X1094419Y-104399D01*
X1235839Y37020D01*
G37*
G36*
X1730832Y-457934D02*
G01*
X1589410Y-599356D01*
X1518701Y-528645D01*
X1660121Y-387222D01*
G37*
G36*
X1872310Y-599302D02*
G01*
X1730888Y-740724D01*
X1660177Y-670013D01*
X1801599Y-528594D01*
G37*
G36*
X2013640Y-740813D02*
G01*
X1872218Y-882235D01*
X1801507Y-811524D01*
X1942929Y-670105D01*
G37*
G36*
X2154953Y-882342D02*
G01*
X2013531Y-1023764D01*
X1942823Y-953053D01*
X2084242Y-811634D01*
G37*
G36*
X811489Y-2084387D02*
G01*
X952911Y-1942965D01*
X1023620Y-2013676D01*
X882200Y-2155096D01*
G37*
G36*
X670013Y-1943018D02*
G01*
X811436Y-1801599D01*
X882147Y-1872310D01*
X740724Y-2013729D01*
G37*
G36*
X528594Y-1801599D02*
G01*
X670013Y-1660177D01*
X740724Y-1730888D01*
X599302Y-1872310D01*
G37*
G36*
X387169Y-1660174D02*
G01*
X528591Y-1518754D01*
X599302Y-1589465D01*
X457880Y-1730885D01*
G37*
G36*
X245750Y-1518754D02*
G01*
X387169Y-1377332D01*
X457880Y-1448043D01*
X316458Y-1589465D01*
G37*
D21*
G01*
X-1640662Y-637489D03*
G01*
X-551713Y-1726437D03*
G01*
X806094Y1073607D03*
D22*
G01*
X1159560Y720140D03*
D23*
G01*
X-790676Y-1076223D03*
G01*
X-1038148Y-828751D03*
G01*
X917676Y1901723D03*
G01*
X1165148Y1654251D03*
G36*
X-1141445Y-101208D02*
G01*
X-1205087Y-164848D01*
X-1091948Y-277987D01*
X-1028308Y-214345D01*
G37*
D12*
G01*
X795528Y-474218D03*
G01*
X-1344676Y350012D03*
G01*
X-1239012Y10921D03*
G01*
X188976Y523747D03*
G01*
X501395Y198881D03*
D25*
X-819152Y737516D02*
G01*
X-888083Y806447D01*
X-729338Y827331D02*
G01*
X-798268Y896261D01*
X-639523Y917120D02*
G01*
X-708454Y986050D01*
X-549734Y1006934D02*
G01*
X-618665Y1075865D01*
D26*
X-1231249Y-254650D02*
G01*
X-1181750Y-304149D01*
X-1321038Y-344464D02*
G01*
X-1271539Y-393964D01*
M02*
