G04 Layer: TopPasteMaskLayer*
G04 EasyEDA v6.5.5, 2022-05-12 22:16:57*
G04 08c4366467794e2483e8b99e1b790a1a,62a2711f98894334b0c9608ef6a587eb,10*
G04 Gerber Generator version 0.2*
G04 Scale: 100 percent, Rotated: No, Reflected: No *
G04 Dimensions in millimeters *
G04 leading zeros omitted , absolute positions ,4 integer and 5 decimal *
%FSLAX45Y45*%
%MOMM*%

%ADD10C,0.0001*%

%LPD*%
G36*
X-1224178Y1174597D02*
G01*
X-1276197Y1122578D01*
X-1276197Y1113485D01*
X-1240586Y1077925D01*
X-1200454Y1079296D01*
X-1180896Y1098854D01*
X-1179525Y1138986D01*
X-1215085Y1174597D01*
G37*
G36*
X-1096213Y1055674D02*
G01*
X-1136345Y1054303D01*
X-1155903Y1034745D01*
X-1157274Y994613D01*
X-1121714Y959002D01*
X-1112621Y959002D01*
X-1060602Y1011021D01*
X-1060602Y1020114D01*
G37*
G36*
X-1480563Y967188D02*
G01*
X-1537139Y910612D01*
X-1573237Y946713D01*
X-1516664Y1003289D01*
G37*
G36*
X-1413388Y900013D02*
G01*
X-1469961Y843437D01*
X-1506062Y879538D01*
X-1449486Y936111D01*
G37*
G36*
X-1346210Y832835D02*
G01*
X-1402786Y776262D01*
X-1438887Y812360D01*
X-1382311Y868936D01*
G37*
G36*
X-1685312Y762439D02*
G01*
X-1741888Y705863D01*
X-1777989Y741964D01*
X-1721413Y798537D01*
G37*
G36*
X-1618137Y695261D02*
G01*
X-1674713Y638688D01*
X-1710811Y674786D01*
X-1654238Y731362D01*
G37*
G36*
X-1550962Y628086D02*
G01*
X-1607535Y571510D01*
X-1643636Y607611D01*
X-1587060Y664187D01*
G37*
G36*
X-1786465Y228135D02*
G01*
X-1715757Y298846D01*
X-1606153Y189242D01*
X-1676864Y118534D01*
G37*
G36*
X-1645046Y369557D02*
G01*
X-1574335Y440265D01*
X-1464734Y330664D01*
X-1535442Y259953D01*
G37*
G36*
X-1595965Y-464D02*
G01*
X-1525257Y70246D01*
X-1415653Y-39357D01*
X-1486364Y-110065D01*
G37*
G36*
X-1454546Y140957D02*
G01*
X-1383835Y211665D01*
X-1274234Y102064D01*
X-1344942Y31353D01*
G37*
G36*
X1589356Y-316567D02*
G01*
X1447937Y-457989D01*
X1377226Y-387278D01*
X1518645Y-245856D01*
G37*
G36*
X1447990Y-175092D02*
G01*
X1306568Y-316514D01*
X1235857Y-245803D01*
X1377279Y-104381D01*
G37*
G36*
X1978106Y-1342158D02*
G01*
X1836684Y-1200739D01*
X1907395Y-1130028D01*
X2048814Y-1271447D01*
G37*
G36*
X1836630Y-1483527D02*
G01*
X1695208Y-1342105D01*
X1765919Y-1271394D01*
X1907341Y-1412816D01*
G37*
G36*
X1695262Y-1624893D02*
G01*
X1553842Y-1483471D01*
X1624553Y-1412763D01*
X1765973Y-1554182D01*
G37*
G36*
X1553789Y-1766369D02*
G01*
X1412367Y-1624947D01*
X1483078Y-1554236D01*
X1624497Y-1695658D01*
G37*
G36*
X1412420Y-1907664D02*
G01*
X1271000Y-1766242D01*
X1341709Y-1695533D01*
X1483131Y-1836953D01*
G37*
G36*
X1271252Y-2049048D02*
G01*
X1129830Y-1907628D01*
X1200541Y-1836917D01*
X1341960Y-1978339D01*
G37*
G36*
X-37091Y-1235913D02*
G01*
X104327Y-1094491D01*
X175039Y-1165202D01*
X33616Y-1306621D01*
G37*
G36*
X-178513Y-1094491D02*
G01*
X-37091Y-953068D01*
X33616Y-1023780D01*
X-107802Y-1165202D01*
G37*
G36*
X-949078Y21897D02*
G01*
X-885497Y85478D01*
X-828921Y28902D01*
X-892502Y-34678D01*
G37*
G36*
X-857120Y113855D02*
G01*
X-793539Y177436D01*
X-736963Y120860D01*
X-800544Y57279D01*
G37*
M02*
