G04 Layer: BottomSilkscreenLayer*
G04 EasyEDA v6.5.5, 2022-05-12 22:16:57*
G04 08c4366467794e2483e8b99e1b790a1a,62a2711f98894334b0c9608ef6a587eb,10*
G04 Gerber Generator version 0.2*
G04 Scale: 100 percent, Rotated: No, Reflected: No *
G04 Dimensions in millimeters *
G04 leading zeros omitted , absolute positions ,4 integer and 5 decimal *
%FSLAX45Y45*%
%MOMM*%

%ADD10C,0.2540*%
%ADD27C,0.1524*%
%ADD29C,0.2032*%
%ADD32C,0.2500*%

%LPD*%
D27*
X-303321Y521682D02*
G01*
X-248180Y466544D01*
X-240817Y451995D01*
X-240817Y437268D01*
X-248361Y422541D01*
X-255724Y415175D01*
X-270273Y407812D01*
X-285000Y407812D01*
X-299549Y415175D01*
X-354688Y470316D01*
X-412160Y390931D02*
G01*
X-415752Y402066D01*
X-408388Y416613D01*
X-401025Y423976D01*
X-386478Y431340D01*
X-367977Y427570D01*
X-345887Y413021D01*
X-327568Y394700D01*
X-316611Y376201D01*
X-316611Y361475D01*
X-323974Y346925D01*
X-327746Y343156D01*
X-342295Y335790D01*
X-357022Y335790D01*
X-371571Y343156D01*
X-375343Y346925D01*
X-382706Y361475D01*
X-382706Y376201D01*
X-375343Y390751D01*
X-371571Y394522D01*
X-357022Y401886D01*
X-342295Y401886D01*
X-327568Y394700D01*
D32*
X551240Y905677D02*
G01*
X662774Y855568D01*
X551240Y905677D02*
G01*
X601169Y793963D01*
X624339Y871014D02*
G01*
X585723Y832398D01*
X456410Y772411D02*
G01*
X452457Y783907D01*
X452457Y799353D01*
X456410Y810846D01*
X471855Y826292D01*
X483349Y830244D01*
X498795Y830244D01*
X510291Y826292D01*
X525556Y818570D01*
X544954Y799172D01*
X552678Y783907D01*
X556628Y772411D01*
X556628Y756965D01*
X552678Y745469D01*
X537230Y730023D01*
X525736Y726074D01*
X510291Y726074D01*
X498795Y730023D01*
X910450Y546468D02*
G01*
X1021986Y496359D01*
X910450Y546468D02*
G01*
X960381Y434754D01*
X983548Y511804D02*
G01*
X944935Y473189D01*
X815619Y413202D02*
G01*
X811667Y424695D01*
X811667Y440141D01*
X815619Y451637D01*
X831065Y467083D01*
X842561Y471035D01*
X858006Y471035D01*
X869500Y467083D01*
X884768Y459359D01*
X904163Y439963D01*
X911887Y424695D01*
X915840Y413202D01*
X915840Y397756D01*
X911887Y386260D01*
X896442Y370814D01*
X884946Y366862D01*
X869500Y366862D01*
X858006Y370814D01*
X-349120Y-1460258D02*
G01*
X-279791Y-1529587D01*
X-279791Y-1460258D02*
G01*
X-349120Y-1529587D01*
X-1366045Y-374007D02*
G01*
X-1435371Y-443336D01*
X68102Y563351D02*
G01*
X205140Y426313D01*
X-23317Y471931D02*
G01*
X113723Y334893D01*
X133299Y498154D02*
G01*
X41879Y406735D01*
X-66420Y428825D02*
G01*
X70617Y291787D01*
X70617Y291787D02*
G01*
X-7691Y213479D01*
X-187835Y307413D02*
G01*
X-50794Y170375D01*
X-279433Y215816D02*
G01*
X-96415Y215993D01*
X-161792Y215993D02*
G01*
X-142394Y78775D01*
X-244231Y94401D02*
G01*
X-361693Y-23060D01*
X-483105Y12143D02*
G01*
X-346067Y-124896D01*
X-483105Y12143D02*
G01*
X-541835Y-46588D01*
X-554946Y-72631D01*
X-555127Y-85742D01*
X-548482Y-105318D01*
X-528904Y-124896D01*
X-509328Y-131541D01*
X-496216Y-131361D01*
X-469993Y-118430D01*
X-411264Y-59700D01*
X-617628Y-122382D02*
G01*
X-480590Y-259420D01*
X-617628Y-122382D02*
G01*
X-532856Y-311685D01*
X-722160Y-226910D02*
G01*
X-532856Y-311685D01*
X-722160Y-226910D02*
G01*
X-585122Y-363948D01*
X-804418Y-309171D02*
G01*
X-778375Y-296059D01*
X-745688Y-302524D01*
X-706534Y-328747D01*
X-686958Y-348325D01*
X-660735Y-387479D01*
X-654268Y-420166D01*
X-667379Y-446209D01*
X-680491Y-459320D01*
X-706534Y-472432D01*
X-739221Y-465965D01*
X-778375Y-439742D01*
X-797953Y-420166D01*
X-824176Y-381012D01*
X-830640Y-348325D01*
X-817529Y-322282D01*
X-804418Y-309171D01*
X-912901Y-417652D02*
G01*
X-984742Y-489493D01*
X-893323Y-502605D01*
X-912901Y-522183D01*
X-919365Y-541578D01*
X-919546Y-554690D01*
X-906434Y-580732D01*
X-893323Y-593844D01*
X-867280Y-606955D01*
X-841057Y-606955D01*
X-815014Y-593844D01*
X-795439Y-574268D01*
X-782327Y-548225D01*
X-782147Y-535114D01*
X-788794Y-515536D01*
D29*
X355084Y241815D02*
G01*
X422617Y174284D01*
X333893Y220621D02*
G01*
X401424Y153090D01*
X333893Y220621D02*
G01*
X356341Y108008D01*
X288810Y175541D02*
G01*
X356341Y108008D01*
X267616Y154348D02*
G01*
X335150Y86817D01*
X267616Y154348D02*
G01*
X238701Y125430D01*
X232234Y112499D01*
X232415Y106212D01*
X235648Y96514D01*
X245346Y86817D01*
X254866Y83764D01*
X261152Y83583D01*
X274083Y90048D01*
X302999Y118965D01*
X201523Y88252D02*
G01*
X249836Y39938D01*
X256123Y27188D01*
X256123Y14257D01*
X249656Y1323D01*
X243192Y-5140D01*
X230438Y-11427D01*
X217507Y-11427D01*
X204757Y-5140D01*
X156441Y43172D01*
X112798Y-472D02*
G01*
X180329Y-68003D01*
X135249Y21978D02*
G01*
X90167Y-23101D01*
X94658Y-76443D02*
G01*
X101125Y-76443D01*
X101125Y-82910D01*
X94838Y-82730D01*
X94658Y-76443D01*
X117289Y-99075D02*
G01*
X123573Y-98894D01*
X123573Y-105361D01*
X117289Y-105181D01*
X117289Y-99075D01*
X4856Y-134277D02*
G01*
X-4843Y-137510D01*
X-24239Y-137510D01*
X43291Y-205041D01*
X-64650Y-177921D02*
G01*
X-51719Y-171455D01*
X-35735Y-174868D01*
X-16517Y-187619D01*
X-6819Y-197319D01*
X5933Y-216537D01*
X9344Y-232521D01*
X2880Y-245452D01*
X-3586Y-251919D01*
X-16517Y-258384D01*
X-32501Y-254972D01*
X-51719Y-242219D01*
X-61419Y-232521D01*
X-74170Y-213304D01*
X-77584Y-197319D01*
X-71117Y-184386D01*
X-64650Y-177921D01*
X-130926Y-244195D02*
G01*
X-117993Y-237731D01*
X-101831Y-240962D01*
X-82610Y-253715D01*
X-72913Y-263413D01*
X-60162Y-282630D01*
X-56929Y-298795D01*
X-63393Y-311726D01*
X-69860Y-318193D01*
X-82610Y-324479D01*
X-98775Y-321246D01*
X-117993Y-308495D01*
X-127693Y-298795D01*
X-140444Y-279577D01*
X-143677Y-263413D01*
X-137391Y-250662D01*
X-130926Y-244195D01*
X-139186Y-329686D02*
G01*
X-197020Y-387520D01*
X-243898Y-389496D02*
G01*
X-247129Y-386262D01*
X-256829Y-383031D01*
X-263293Y-383031D01*
X-272994Y-386262D01*
X-285744Y-399016D01*
X-288978Y-408713D01*
X-288978Y-415180D01*
X-285744Y-424878D01*
X-279280Y-431345D01*
X-269760Y-434398D01*
X-253596Y-437631D01*
X-189298Y-437631D01*
X-234378Y-482711D01*
X-355252Y-468523D02*
G01*
X-278023Y-481454D01*
X-326156Y-529587D01*
X-355252Y-468523D02*
G01*
X-287721Y-536054D01*
X-411827Y-525099D02*
G01*
X-398896Y-518632D01*
X-382732Y-521865D01*
X-363514Y-534616D01*
X-353816Y-544316D01*
X-341063Y-563534D01*
X-337830Y-579699D01*
X-344296Y-592630D01*
X-350763Y-599094D01*
X-363514Y-605381D01*
X-379679Y-602150D01*
X-398896Y-589396D01*
X-408594Y-579699D01*
X-421347Y-560481D01*
X-424581Y-544316D01*
X-418294Y-531563D01*
X-411827Y-525099D01*
X-458706Y-571974D02*
G01*
X-416857Y-665190D01*
X-510072Y-623341D02*
G01*
X-416857Y-665190D01*
X-557128Y-670399D02*
G01*
X-463913Y-712246D01*
X-557128Y-670399D02*
G01*
X-515279Y-763612D01*
X-495884Y-699315D02*
G01*
X-528032Y-731464D01*
X-635975Y-781575D02*
G01*
X-639389Y-772055D01*
X-639389Y-759124D01*
X-636155Y-749424D01*
X-623224Y-736493D01*
X-613704Y-733440D01*
X-600773Y-733440D01*
X-591073Y-736673D01*
X-578322Y-742960D01*
X-562157Y-759124D01*
X-555691Y-772055D01*
X-552637Y-781575D01*
X-552637Y-794506D01*
X-555691Y-804024D01*
X-568624Y-816957D01*
X-578322Y-820188D01*
X-591253Y-820188D01*
X-600593Y-816957D01*
X478475Y79992D02*
G01*
X487992Y83045D01*
X500926Y83045D01*
X510443Y79992D01*
X523374Y73525D01*
X539539Y57360D01*
X545825Y44610D01*
X549059Y34909D01*
X549059Y21978D01*
X546006Y12458D01*
X533074Y-472D01*
X523374Y-3705D01*
X510443Y-3705D01*
X500926Y-292D01*
X488172Y5994D01*
X472008Y22158D01*
X465543Y35090D01*
X462310Y44429D01*
X462310Y57360D01*
X465543Y67058D01*
X478475Y79992D01*
X425132Y26649D02*
G01*
X473265Y-21485D01*
X479732Y-34417D01*
X479732Y-47348D01*
X473265Y-60279D01*
X466801Y-66746D01*
X454047Y-73032D01*
X441116Y-73032D01*
X428185Y-66565D01*
X380050Y-18432D01*
X336407Y-62077D02*
G01*
X403938Y-129608D01*
X358856Y-39626D02*
G01*
X313776Y-84706D01*
X292582Y-105900D02*
G01*
X360113Y-173431D01*
X292582Y-105900D02*
G01*
X263667Y-134815D01*
X257380Y-147568D01*
X257380Y-154033D01*
X260614Y-163733D01*
X270131Y-173250D01*
X279831Y-176484D01*
X286296Y-176484D01*
X299049Y-170197D01*
X327964Y-141282D01*
X226489Y-171993D02*
G01*
X274622Y-220129D01*
X281089Y-233060D01*
X281089Y-245991D01*
X274622Y-258922D01*
X268155Y-265389D01*
X255404Y-271675D01*
X242473Y-271675D01*
X229542Y-265209D01*
X181406Y-217076D01*
X137764Y-260720D02*
G01*
X205295Y-328251D01*
X160213Y-238269D02*
G01*
X115133Y-283349D01*
X119623Y-336692D02*
G01*
X126088Y-336692D01*
X126088Y-343159D01*
X119801Y-342978D01*
X119623Y-336692D01*
X142074Y-359143D02*
G01*
X148539Y-359143D01*
X148539Y-365610D01*
X142252Y-365429D01*
X142074Y-359143D01*
X10424Y-388058D02*
G01*
X-24958Y-423440D01*
X20121Y-429727D01*
X10424Y-439427D01*
X7190Y-449125D01*
X7190Y-455592D01*
X13655Y-468523D01*
X19941Y-474809D01*
X32875Y-481274D01*
X45806Y-481274D01*
X58737Y-474809D01*
X68257Y-465289D01*
X74721Y-452358D01*
X74721Y-445891D01*
X71488Y-436194D01*
X-1252Y-502467D02*
G01*
X5214Y-502467D01*
X5214Y-508934D01*
X-1252Y-508934D01*
X-1252Y-502467D01*
X-83329Y-481812D02*
G01*
X-118711Y-517194D01*
X-73812Y-523661D01*
X-83510Y-533359D01*
X-86563Y-542879D01*
X-86563Y-549346D01*
X-80098Y-562277D01*
X-73812Y-568563D01*
X-60878Y-575028D01*
X-48127Y-575208D01*
X-35196Y-568741D01*
X-25496Y-559043D01*
X-19032Y-546112D01*
X-19212Y-539826D01*
X-22443Y-530128D01*
X-143139Y-541621D02*
G01*
X-101470Y-635017D01*
X-194685Y-593168D02*
G01*
X-101470Y-635017D01*
X-215879Y-614362D02*
G01*
X-148348Y-681893D01*
X-215879Y-614362D02*
G01*
X-238330Y-636813D01*
X-244795Y-649744D01*
X-244795Y-662675D01*
X-241561Y-672015D01*
X-235097Y-684946D01*
X-218932Y-701111D01*
X-206179Y-707397D01*
X-196662Y-710808D01*
X-183730Y-710808D01*
X-170797Y-704344D01*
X-148348Y-681893D01*
X-314302Y-744755D02*
G01*
X-317355Y-735236D01*
X-317355Y-722304D01*
X-314124Y-712607D01*
X-301370Y-699853D01*
X-291673Y-696620D01*
X-278742Y-696620D01*
X-269222Y-699673D01*
X-256291Y-706140D01*
X-240126Y-722304D01*
X-233840Y-735055D01*
X-230606Y-744755D01*
X-230606Y-757687D01*
X-233840Y-767384D01*
X-246590Y-780138D01*
X-256291Y-783371D01*
X-269222Y-783371D01*
X-278919Y-780138D01*
X-422244Y-794865D02*
G01*
X-261498Y-839944D01*
X-436973Y-835456D02*
G01*
X-472356Y-870838D01*
X-427273Y-877125D01*
X-436973Y-886823D01*
X-440204Y-896520D01*
X-440204Y-902987D01*
X-433740Y-915918D01*
X-427454Y-922205D01*
X-414522Y-928672D01*
X-401591Y-928672D01*
X-388658Y-922205D01*
X-379140Y-912685D01*
X-372673Y-899754D01*
X-372673Y-893290D01*
X-375907Y-883589D01*
X-496780Y-895263D02*
G01*
X-445234Y-978781D01*
X-528929Y-927414D02*
G01*
X-445234Y-978781D01*
X-528929Y-927414D02*
G01*
X-477385Y-1010930D01*
X-561080Y-959563D02*
G01*
X-477385Y-1010930D01*
D27*
X-561467Y-603537D02*
G01*
X-616605Y-658677D01*
X-631154Y-666038D01*
X-645881Y-666038D01*
X-660608Y-658495D01*
X-667971Y-651131D01*
X-675337Y-636582D01*
X-675337Y-621855D01*
X-667971Y-607308D01*
X-612833Y-552168D01*
X-681263Y-483740D02*
G01*
X-644443Y-520557D01*
X-673900Y-557197D01*
X-673900Y-550014D01*
X-681263Y-535106D01*
X-692218Y-524151D01*
X-706948Y-516966D01*
X-721494Y-516785D01*
X-736401Y-524151D01*
X-743765Y-531515D01*
X-750951Y-546242D01*
X-750951Y-560969D01*
X-743587Y-575518D01*
X-732629Y-586473D01*
X-717903Y-594017D01*
X-710719Y-594017D01*
X-699582Y-590425D01*
X688467Y1429037D02*
G01*
X743605Y1484175D01*
X758154Y1491538D01*
X772881Y1491538D01*
X787608Y1483995D01*
X794971Y1476631D01*
X802337Y1462082D01*
X802337Y1447355D01*
X794971Y1432808D01*
X739833Y1377668D01*
X800900Y1316603D02*
G01*
X815446Y1404790D01*
X870587Y1349651D01*
X800900Y1316603D02*
G01*
X877951Y1393654D01*
X-1494586Y26647D02*
G01*
X-1439448Y-28491D01*
X-1432085Y-43040D01*
X-1432085Y-57767D01*
X-1439626Y-72494D01*
X-1446992Y-79857D01*
X-1461538Y-87223D01*
X-1476265Y-87223D01*
X-1490814Y-79857D01*
X-1545953Y-24719D01*
X-1621746Y-100512D02*
G01*
X-1507878Y-140743D01*
X-1570200Y-48966D02*
G01*
X-1621746Y-100512D01*
D10*
X431515Y1774177D02*
G01*
X-1999510Y-656849D01*
X1859861Y345831D02*
G01*
X431515Y1774177D01*
X-571164Y-2085195D02*
G01*
X-1999510Y-656849D01*
X1859861Y345831D02*
G01*
X-571164Y-2085195D01*
X-419422Y-952502D02*
G01*
X-914400Y-457525D01*
X-419422Y-952502D02*
G01*
X-907326Y-1440408D01*
X-907328Y-1440411D02*
G01*
X-1402306Y-945433D01*
X-560478Y-1093558D02*
G01*
X-1055456Y-598581D01*
X-786645Y-1319728D02*
G01*
X-1281623Y-824750D01*
X-907326Y-1440408D02*
G01*
X-875504Y-1472229D01*
X-818934Y-1415661D01*
X-850757Y-1383837D01*
X-914402Y-457520D02*
G01*
X-1402308Y-945426D01*
X-914400Y-457525D02*
G01*
X-946221Y-425706D01*
X-1002789Y-482274D01*
X-970968Y-514093D01*
X546422Y1778002D02*
G01*
X1041400Y1283025D01*
X546422Y1778002D02*
G01*
X1034326Y2265908D01*
X1034328Y2265911D02*
G01*
X1529306Y1770933D01*
X687478Y1919058D02*
G01*
X1182456Y1424081D01*
X913645Y2145228D02*
G01*
X1408623Y1650250D01*
X1034326Y2265908D02*
G01*
X1002504Y2297729D01*
X945934Y2241161D01*
X977757Y2209337D01*
X1041402Y1283020D02*
G01*
X1529308Y1770926D01*
X1041400Y1283025D02*
G01*
X1073221Y1251206D01*
X1129789Y1307774D01*
X1097968Y1339593D01*
X-969566Y-232846D02*
G01*
X-1253070Y-516298D01*
G75*
G01*
X-1253058Y-516313D02*
G02*
X-969594Y-232821I46738J236730D01*
M02*
