G04 Layer: BottomSolderMaskLayer*
G04 EasyEDA v6.5.5, 2022-05-12 22:16:57*
G04 08c4366467794e2483e8b99e1b790a1a,62a2711f98894334b0c9608ef6a587eb,10*
G04 Gerber Generator version 0.2*
G04 Scale: 100 percent, Rotated: No, Reflected: No *
G04 Dimensions in millimeters *
G04 leading zeros omitted , absolute positions ,4 integer and 5 decimal *
%FSLAX45Y45*%
%MOMM*%

%ADD33C,1.1783*%
%ADD34C,1.0016*%
%ADD36C,2.0032*%
%ADD40C,1.9032*%
%ADD43C,3.2512*%
%ADD44C,3.2532*%
%ADD45C,2.2032*%

%LPD*%
D33*
X-819152Y737516D02*
G01*
X-888083Y806447D01*
X-729338Y827331D02*
G01*
X-798268Y896261D01*
X-639523Y917120D02*
G01*
X-708454Y986050D01*
X-549734Y1006934D02*
G01*
X-618665Y1075865D01*
D34*
X-1231249Y-254650D02*
G01*
X-1181750Y-304149D01*
X-1321038Y-344464D02*
G01*
X-1271539Y-393964D01*
D36*
G01*
X324993Y-2424988D03*
G01*
X-324993Y-2424988D03*
G01*
X324993Y-1975002D03*
G01*
X-324993Y-1975002D03*
G01*
X-2424988Y-324993D03*
G01*
X-2424988Y324993D03*
G01*
X-1975002Y-324993D03*
G01*
X-1975002Y324993D03*
G01*
X-324993Y2424988D03*
G01*
X324993Y2424988D03*
G01*
X-324993Y1975002D03*
G01*
X324993Y1975002D03*
G01*
X1975027Y-324993D03*
G01*
X1975027Y324993D03*
G01*
X2425014Y-324993D03*
G01*
X2425014Y324993D03*
G36*
X-1131823Y364929D02*
G01*
X-1134871Y365945D01*
X-1137412Y367977D01*
X-1137412Y367792D01*
X-1257807Y488187D01*
X-1257622Y488187D01*
X-1259654Y490728D01*
X-1260670Y493776D01*
X-1260670Y496823D01*
X-1259654Y499871D01*
X-1257622Y502412D01*
X-1257807Y502412D01*
X-1137412Y622807D01*
X-1137412Y622622D01*
X-1134871Y624654D01*
X-1131823Y625670D01*
X-1128776Y625670D01*
X-1125728Y624654D01*
X-1123187Y622622D01*
X-1123187Y622807D01*
X-1002792Y502412D01*
X-1002977Y502412D01*
X-1000945Y499871D01*
X-999929Y496823D01*
X-999929Y493776D01*
X-1000945Y490728D01*
X-1002977Y488187D01*
X-1002792Y488187D01*
X-1123187Y367792D01*
X-1123187Y367977D01*
X-1125728Y365945D01*
X-1128776Y364929D01*
G37*
G36*
X-707389Y1352550D02*
G01*
X-707301Y1352638D01*
X-710349Y1353146D01*
X-713397Y1354670D01*
X-715429Y1356702D01*
X-716953Y1359750D01*
X-717461Y1362798D01*
X-717550Y1362710D01*
X-717550Y1532889D01*
X-717461Y1532801D01*
X-716953Y1535849D01*
X-715429Y1538897D01*
X-713397Y1540929D01*
X-710349Y1542453D01*
X-707301Y1542961D01*
X-707389Y1543050D01*
X-537210Y1543050D01*
X-537298Y1542961D01*
X-534250Y1542453D01*
X-531202Y1540929D01*
X-529170Y1538897D01*
X-527646Y1535849D01*
X-527138Y1532801D01*
X-527050Y1532889D01*
X-527050Y1362710D01*
X-527138Y1362798D01*
X-527646Y1359750D01*
X-529170Y1356702D01*
X-531202Y1354670D01*
X-534250Y1353146D01*
X-537298Y1352638D01*
X-537210Y1352550D01*
G37*
D40*
G01*
X-876300Y1447825D03*
G01*
X-1130300Y1447825D03*
G01*
X-1384325Y1447800D03*
G36*
X173515Y-1458203D02*
G01*
X170467Y-1457187D01*
X167927Y-1455155D01*
X167894Y-1455165D01*
X97028Y-1384554D01*
X97215Y-1384444D01*
X95183Y-1381904D01*
X94167Y-1378856D01*
X94167Y-1375808D01*
X95183Y-1372760D01*
X97215Y-1370220D01*
X97028Y-1370076D01*
X238505Y-1228852D01*
X238638Y-1228801D01*
X241178Y-1226769D01*
X244226Y-1225753D01*
X247274Y-1225753D01*
X250322Y-1226769D01*
X252862Y-1228801D01*
X252984Y-1228852D01*
X323595Y-1299463D01*
X323570Y-1299509D01*
X325602Y-1302049D01*
X326618Y-1305097D01*
X326618Y-1308145D01*
X325602Y-1311193D01*
X323595Y-1313687D01*
X182118Y-1455165D01*
X182151Y-1455155D01*
X179611Y-1457187D01*
X176563Y-1458203D01*
G37*
G36*
X1022202Y-43832D02*
G01*
X1019154Y-42816D01*
X1016614Y-40784D01*
X1016507Y-40894D01*
X945895Y29971D01*
X943871Y32466D01*
X942855Y35514D01*
X942855Y38562D01*
X943871Y41610D01*
X945903Y44150D01*
X945895Y44195D01*
X1087325Y185572D01*
X1089865Y187604D01*
X1092913Y188620D01*
X1095961Y188620D01*
X1099009Y187604D01*
X1101549Y185572D01*
X1101597Y185673D01*
X1172210Y114807D01*
X1172260Y114861D01*
X1174292Y112321D01*
X1175308Y109273D01*
X1175308Y106225D01*
X1174292Y103177D01*
X1172260Y100637D01*
X1172210Y100584D01*
X1030986Y-40894D01*
X1030838Y-40784D01*
X1028298Y-42816D01*
X1025250Y-43832D01*
G37*
G36*
X1163607Y-185270D02*
G01*
X1160559Y-184254D01*
X1158019Y-182222D01*
X1157986Y-182371D01*
X1087120Y-111505D01*
X1087307Y-111511D01*
X1085275Y-108971D01*
X1084259Y-105923D01*
X1084259Y-102875D01*
X1085275Y-99827D01*
X1087307Y-97287D01*
X1087120Y-97281D01*
X1228597Y44195D01*
X1228727Y44132D01*
X1231267Y46164D01*
X1234315Y47180D01*
X1237363Y47180D01*
X1240411Y46164D01*
X1242951Y44132D01*
X1243076Y44195D01*
X1313687Y-26415D01*
X1313662Y-26578D01*
X1315694Y-29118D01*
X1316710Y-32166D01*
X1316710Y-35214D01*
X1315694Y-38262D01*
X1313662Y-40802D01*
X1313687Y-40894D01*
X1172210Y-182371D01*
X1172243Y-182222D01*
X1169703Y-184254D01*
X1166655Y-185270D01*
G37*
G36*
X1587886Y-609516D02*
G01*
X1584838Y-608500D01*
X1582298Y-606468D01*
X1582165Y-606552D01*
X1511554Y-535939D01*
X1511589Y-535757D01*
X1509557Y-533217D01*
X1508541Y-530169D01*
X1508541Y-527121D01*
X1509557Y-524073D01*
X1511589Y-521533D01*
X1511554Y-521462D01*
X1653009Y-380111D01*
X1655549Y-378079D01*
X1658597Y-377062D01*
X1661645Y-377062D01*
X1664693Y-378079D01*
X1667233Y-380111D01*
X1667255Y-379984D01*
X1738121Y-450850D01*
X1737944Y-450822D01*
X1739976Y-453362D01*
X1740992Y-456410D01*
X1740992Y-459458D01*
X1739976Y-462506D01*
X1737944Y-465046D01*
X1738121Y-465073D01*
X1596644Y-606552D01*
X1596522Y-606468D01*
X1593982Y-608500D01*
X1590934Y-609516D01*
G37*
G36*
X1729364Y-750884D02*
G01*
X1726316Y-749868D01*
X1723776Y-747836D01*
X1723644Y-748029D01*
X1653031Y-677163D01*
X1653065Y-677125D01*
X1651033Y-674585D01*
X1650017Y-671537D01*
X1650017Y-668489D01*
X1651033Y-665441D01*
X1653065Y-662901D01*
X1653031Y-662939D01*
X1794510Y-521462D01*
X1797027Y-519450D01*
X1800075Y-518434D01*
X1803123Y-518434D01*
X1806171Y-519450D01*
X1808711Y-521482D01*
X1808734Y-521462D01*
X1879600Y-592073D01*
X1879422Y-592190D01*
X1881454Y-594730D01*
X1882470Y-597778D01*
X1882470Y-600826D01*
X1881454Y-603874D01*
X1879422Y-606414D01*
X1879600Y-606552D01*
X1738121Y-748029D01*
X1738000Y-747836D01*
X1735460Y-749868D01*
X1732412Y-750884D01*
G37*
G36*
X1870694Y-892395D02*
G01*
X1867646Y-891379D01*
X1865106Y-889347D01*
X1865121Y-889507D01*
X1794255Y-818642D01*
X1794395Y-818636D01*
X1792363Y-816096D01*
X1791347Y-813048D01*
X1791347Y-810000D01*
X1792363Y-806952D01*
X1794395Y-804412D01*
X1794255Y-804418D01*
X1935734Y-662939D01*
X1935817Y-662993D01*
X1938357Y-660961D01*
X1941405Y-659945D01*
X1944453Y-659945D01*
X1947501Y-660961D01*
X1950041Y-662993D01*
X1950211Y-662939D01*
X2020824Y-733552D01*
X2020752Y-733701D01*
X2022784Y-736241D01*
X2023800Y-739289D01*
X2023800Y-742337D01*
X2022784Y-745385D01*
X2020752Y-747925D01*
X2020824Y-748029D01*
X1879345Y-889507D01*
X1879330Y-889347D01*
X1876790Y-891379D01*
X1873742Y-892395D01*
G37*
G36*
X2012007Y-1033924D02*
G01*
X2008959Y-1032908D01*
X2006419Y-1030876D01*
X2006345Y-1030986D01*
X1935734Y-960120D01*
X1935711Y-960165D01*
X1933679Y-957625D01*
X1932663Y-954577D01*
X1932663Y-951529D01*
X1933679Y-948481D01*
X1935711Y-945941D01*
X1935734Y-945895D01*
X2076958Y-804418D01*
X2077130Y-804522D01*
X2079670Y-802490D01*
X2082718Y-801474D01*
X2085766Y-801474D01*
X2088814Y-802490D01*
X2091354Y-804522D01*
X2091436Y-804418D01*
X2162047Y-875284D01*
X2162065Y-875230D01*
X2164097Y-877770D01*
X2165113Y-880818D01*
X2165113Y-883866D01*
X2164097Y-886914D01*
X2162065Y-889454D01*
X2162047Y-889507D01*
X2020824Y-1030986D01*
X2020643Y-1030876D01*
X2018103Y-1032908D01*
X2015055Y-1033924D01*
G37*
G36*
X880676Y-2165256D02*
G01*
X877628Y-2164240D01*
X875088Y-2162208D01*
X875029Y-2162302D01*
X804418Y-2091689D01*
X804377Y-2091499D01*
X802345Y-2088959D01*
X801329Y-2085911D01*
X801329Y-2082863D01*
X802345Y-2079815D01*
X804377Y-2077275D01*
X804418Y-2077212D01*
X945642Y-1935734D01*
X945799Y-1935853D01*
X948339Y-1933821D01*
X951387Y-1932805D01*
X954435Y-1932805D01*
X957483Y-1933821D01*
X960023Y-1935853D01*
X960120Y-1935734D01*
X1030731Y-2006600D01*
X1032763Y-2009104D01*
X1033779Y-2012152D01*
X1033779Y-2015200D01*
X1032763Y-2018248D01*
X1030731Y-2020788D01*
X1030731Y-2020823D01*
X889507Y-2162302D01*
X889312Y-2162208D01*
X886772Y-2164240D01*
X883724Y-2165256D01*
G37*
G36*
X739200Y-2023889D02*
G01*
X736152Y-2022873D01*
X733612Y-2020841D01*
X733552Y-2020823D01*
X662939Y-1950212D01*
X662901Y-1950130D01*
X660869Y-1947590D01*
X659853Y-1944542D01*
X659853Y-1941494D01*
X660869Y-1938446D01*
X662901Y-1935906D01*
X662939Y-1935734D01*
X804163Y-1794510D01*
X804324Y-1794487D01*
X806864Y-1792455D01*
X809912Y-1791439D01*
X812960Y-1791439D01*
X816008Y-1792455D01*
X818548Y-1794487D01*
X818642Y-1794510D01*
X889254Y-1865121D01*
X889259Y-1865198D01*
X891291Y-1867738D01*
X892307Y-1870786D01*
X892307Y-1873834D01*
X891291Y-1876882D01*
X889259Y-1879422D01*
X889254Y-1879600D01*
X748029Y-2020823D01*
X747836Y-2020841D01*
X745296Y-2022873D01*
X742248Y-2023889D01*
G37*
G36*
X597778Y-1882470D02*
G01*
X594730Y-1881454D01*
X592190Y-1879422D01*
X592073Y-1879600D01*
X521462Y-1808734D01*
X521482Y-1808711D01*
X519450Y-1806171D01*
X518434Y-1803123D01*
X518434Y-1800075D01*
X519450Y-1797027D01*
X521482Y-1794487D01*
X521462Y-1794510D01*
X662939Y-1653031D01*
X665441Y-1651033D01*
X668489Y-1650017D01*
X671537Y-1650017D01*
X674585Y-1651033D01*
X677125Y-1653065D01*
X677163Y-1653031D01*
X748029Y-1723644D01*
X747836Y-1723776D01*
X749868Y-1726316D01*
X750884Y-1729364D01*
X750884Y-1732412D01*
X749868Y-1735460D01*
X747836Y-1738000D01*
X748029Y-1738121D01*
X606552Y-1879600D01*
X606414Y-1879422D01*
X603874Y-1881454D01*
X600826Y-1882470D01*
G37*
G36*
X456356Y-1741045D02*
G01*
X453308Y-1740029D01*
X450768Y-1737997D01*
X450595Y-1738121D01*
X379984Y-1667255D01*
X380057Y-1667286D01*
X378025Y-1664746D01*
X377009Y-1661698D01*
X377009Y-1658650D01*
X378025Y-1655602D01*
X380057Y-1653062D01*
X379984Y-1653031D01*
X521462Y-1511554D01*
X521479Y-1511642D01*
X524019Y-1509610D01*
X527067Y-1508594D01*
X530115Y-1508594D01*
X533163Y-1509610D01*
X535686Y-1511554D01*
X606552Y-1582165D01*
X606414Y-1582353D01*
X608446Y-1584893D01*
X609462Y-1587941D01*
X609462Y-1590989D01*
X608446Y-1594037D01*
X606414Y-1596577D01*
X606552Y-1596644D01*
X465073Y-1738121D01*
X464992Y-1737997D01*
X462452Y-1740029D01*
X459404Y-1741045D01*
G37*
G36*
X314934Y-1599625D02*
G01*
X311886Y-1598609D01*
X309346Y-1596577D01*
X309371Y-1596644D01*
X238505Y-1526031D01*
X238638Y-1525866D01*
X236606Y-1523326D01*
X235590Y-1520278D01*
X235590Y-1517230D01*
X236606Y-1514182D01*
X238638Y-1511642D01*
X238505Y-1511554D01*
X379984Y-1370076D01*
X380057Y-1370220D01*
X382597Y-1368188D01*
X385645Y-1367172D01*
X388693Y-1367172D01*
X391741Y-1368188D01*
X394281Y-1370220D01*
X394462Y-1370076D01*
X465073Y-1440942D01*
X464992Y-1440931D01*
X467024Y-1443471D01*
X468040Y-1446519D01*
X468040Y-1449567D01*
X467024Y-1452615D01*
X464992Y-1455155D01*
X465073Y-1455165D01*
X323595Y-1596644D01*
X323570Y-1596577D01*
X321030Y-1598609D01*
X317982Y-1599625D01*
G37*
D43*
G01*
X-1640662Y-637489D03*
G01*
X-551713Y-1726437D03*
G01*
X806094Y1073607D03*
D44*
G01*
X1159560Y720140D03*
D45*
G01*
X-790676Y-1076223D03*
G01*
X-1038148Y-828751D03*
G01*
X917676Y1901723D03*
G01*
X1165148Y1654251D03*
G36*
X-1092710Y-283067D02*
G01*
X-1094234Y-282559D01*
X-1095504Y-281543D01*
X-1095502Y-281686D01*
X-1208786Y-168402D01*
X-1208643Y-168404D01*
X-1209659Y-167134D01*
X-1210167Y-165610D01*
X-1210167Y-164086D01*
X-1209659Y-162562D01*
X-1208643Y-161292D01*
X-1208786Y-161289D01*
X-1145031Y-97536D01*
X-1145001Y-97652D01*
X-1143731Y-96636D01*
X-1142207Y-96128D01*
X-1140683Y-96128D01*
X-1139159Y-96636D01*
X-1137920Y-97652D01*
X-1024636Y-210820D01*
X-1024752Y-210789D01*
X-1023736Y-212059D01*
X-1023228Y-213583D01*
X-1023228Y-215107D01*
X-1023736Y-216631D01*
X-1024752Y-217901D01*
X-1024636Y-217931D01*
X-1088389Y-281686D01*
X-1088392Y-281543D01*
X-1089662Y-282559D01*
X-1091186Y-283067D01*
G37*
M02*
