G04 Layer: BottomLayer*
G04 EasyEDA v6.5.5, 2022-05-12 22:16:57*
G04 08c4366467794e2483e8b99e1b790a1a,62a2711f98894334b0c9608ef6a587eb,10*
G04 Gerber Generator version 0.2*
G04 Scale: 100 percent, Rotated: No, Reflected: No *
G04 Dimensions in millimeters *
G04 leading zeros omitted , absolute positions ,4 integer and 5 decimal *
%FSLAX45Y45*%
%MOMM*%

%ADD11C,0.2600*%
%ADD12C,0.6100*%
%ADD18C,1.8000*%
%ADD19R,1.7000X1.7000*%
%ADD20C,1.7000*%
%ADD21C,3.0480*%
%ADD22C,3.0500*%
%ADD23C,2.0000*%
%ADD25C,0.9751*%
%ADD26C,0.9000*%

%LPD*%
D11*
X1200404Y-69087D02*
G01*
X795528Y-474218D01*
X634745Y-1766315D02*
G01*
X663447Y-1737360D01*
X663447Y368300D01*
X157987Y873760D01*
X157987Y2258060D01*
X325120Y2424937D01*
X351789Y-1483360D02*
G01*
X157987Y-1677162D01*
X157987Y-2258060D01*
X325120Y-2424937D01*
X1975104Y324865D02*
G01*
X1974088Y323850D01*
X1974088Y-324104D01*
X775970Y-1907794D02*
G01*
X1375410Y-1308354D01*
X1375410Y-567181D01*
X1618487Y-324104D01*
X1974088Y-324104D01*
X1974088Y-324104D02*
G01*
X1975104Y-325120D01*
X2049018Y-757681D02*
G01*
X2030222Y-776223D01*
X1907539Y-776223D01*
X2049018Y-917702D02*
G01*
X2049018Y-837692D01*
X2049018Y-837692D02*
G01*
X2049018Y-757681D01*
X2049018Y-837692D02*
G01*
X2424938Y-461518D01*
X2424938Y-325120D01*
X2424938Y324865D02*
G01*
X2424938Y-325120D01*
X-1975104Y324865D02*
G01*
X-1975104Y-325120D01*
X-790702Y-1076197D02*
G01*
X-790702Y-695197D01*
X-1206500Y-279400D01*
X917702Y1901697D02*
G01*
X917702Y1185163D01*
X806195Y1073657D01*
X1165097Y1654302D02*
G01*
X1165097Y725678D01*
X1159510Y720089D01*
X-1296162Y-369315D02*
G01*
X-1296162Y-981963D01*
X-551687Y-1726437D01*
X917447Y-2049018D02*
G01*
X879855Y-2086610D01*
X436626Y-2086610D01*
X325120Y-1975104D01*
X210312Y-1341881D02*
G01*
X50292Y-1341881D01*
X-551687Y-1726437D02*
G01*
X-324865Y-1726437D01*
X50292Y-1341881D02*
G01*
X-324865Y-1717294D01*
X-324865Y-1726437D01*
X-324865Y-1726437D02*
G01*
X-324865Y-1975104D01*
X-622300Y1447800D02*
G01*
X-1344676Y725423D01*
X-1344676Y350012D01*
X-1344676Y350012D02*
G01*
X-1344676Y10921D01*
X-1344676Y10921D02*
G01*
X-1344676Y-321055D01*
X-1296162Y-369315D01*
X-1344676Y10921D02*
G01*
X-1239012Y10921D01*
X-853694Y771905D02*
G01*
X-605281Y523747D01*
X188976Y523747D01*
X-1130300Y1447800D02*
G01*
X-973581Y1604518D01*
X-503173Y1604518D01*
X-132587Y1233678D01*
X-132587Y1056639D01*
X501395Y422402D01*
X501395Y198881D01*
D18*
G01*
X324993Y-2424988D03*
G01*
X-324993Y-2424988D03*
G01*
X324993Y-1975002D03*
G01*
X-324993Y-1975002D03*
G01*
X-2424988Y-324993D03*
G01*
X-2424988Y324993D03*
G01*
X-1975002Y-324993D03*
G01*
X-1975002Y324993D03*
G01*
X-324993Y2424988D03*
G01*
X324993Y2424988D03*
G01*
X-324993Y1975002D03*
G01*
X324993Y1975002D03*
G01*
X1975027Y-324993D03*
G01*
X1975027Y324993D03*
G01*
X2425014Y-324993D03*
G01*
X2425014Y324993D03*
G36*
X-1130300Y615510D02*
G01*
X-1010089Y495300D01*
X-1130300Y375089D01*
X-1250510Y495300D01*
G37*
D19*
G01*
X-622300Y1447800D03*
D20*
G01*
X-876300Y1447825D03*
G01*
X-1130300Y1447825D03*
G01*
X-1384325Y1447800D03*
G36*
X104327Y-1377332D02*
G01*
X245750Y-1235913D01*
X316458Y-1306621D01*
X175039Y-1448043D01*
G37*
G36*
X1165148Y107749D02*
G01*
X1023726Y-33672D01*
X953015Y37038D01*
X1094437Y178460D01*
G37*
G36*
X1306550Y-33690D02*
G01*
X1165131Y-175110D01*
X1094419Y-104399D01*
X1235839Y37020D01*
G37*
G36*
X1730832Y-457934D02*
G01*
X1589410Y-599356D01*
X1518701Y-528645D01*
X1660121Y-387222D01*
G37*
G36*
X1872310Y-599302D02*
G01*
X1730888Y-740724D01*
X1660177Y-670013D01*
X1801599Y-528594D01*
G37*
G36*
X2013640Y-740813D02*
G01*
X1872218Y-882235D01*
X1801507Y-811524D01*
X1942929Y-670105D01*
G37*
G36*
X2154953Y-882342D02*
G01*
X2013531Y-1023764D01*
X1942823Y-953053D01*
X2084242Y-811634D01*
G37*
G36*
X811489Y-2084387D02*
G01*
X952911Y-1942965D01*
X1023620Y-2013676D01*
X882200Y-2155096D01*
G37*
G36*
X670013Y-1943018D02*
G01*
X811436Y-1801599D01*
X882147Y-1872310D01*
X740724Y-2013729D01*
G37*
G36*
X528594Y-1801599D02*
G01*
X670013Y-1660177D01*
X740724Y-1730888D01*
X599302Y-1872310D01*
G37*
G36*
X387169Y-1660174D02*
G01*
X528591Y-1518754D01*
X599302Y-1589465D01*
X457880Y-1730885D01*
G37*
G36*
X245750Y-1518754D02*
G01*
X387169Y-1377332D01*
X457880Y-1448043D01*
X316458Y-1589465D01*
G37*
D21*
G01*
X-1640662Y-637489D03*
G01*
X-551713Y-1726437D03*
G01*
X806094Y1073607D03*
D22*
G01*
X1159560Y720140D03*
D23*
G01*
X-790676Y-1076223D03*
G01*
X-1038148Y-828751D03*
G01*
X917676Y1901723D03*
G01*
X1165148Y1654251D03*
G36*
X-1141445Y-101208D02*
G01*
X-1205087Y-164848D01*
X-1091948Y-277987D01*
X-1028308Y-214345D01*
G37*
D12*
G01*
X795528Y-474218D03*
G01*
X-1344676Y350012D03*
G01*
X-1239012Y10921D03*
G01*
X188976Y523747D03*
G01*
X501395Y198881D03*
D25*
X-819152Y737516D02*
G01*
X-888083Y806447D01*
X-729338Y827331D02*
G01*
X-798268Y896261D01*
X-639523Y917120D02*
G01*
X-708454Y986050D01*
X-549734Y1006934D02*
G01*
X-618665Y1075865D01*
D26*
X-1231249Y-254650D02*
G01*
X-1181750Y-304149D01*
X-1321038Y-344464D02*
G01*
X-1271539Y-393964D01*
M02*
